<svg id="svg" version="1.1" xmlns="http://www.w3.org/2000/svg" xmlns:xlink="http://www.w3.org/1999/xlink" width="400" height="359.1433278418452" viewBox="0, 0, 400,359.1433278418452"><g id="svgg"><path id="path0" d="M189.951 24.917 C 189.407 24.989,187.118 25.285,184.865 25.574 C 182.612 25.863,180.536 26.219,180.252 26.364 C 179.969 26.509,178.476 26.873,176.936 27.172 C 172.075 28.116,163.097 30.389,163.097 30.676 C 163.097 30.827,162.875 30.866,162.603 30.762 C 162.331 30.657,162.109 30.736,162.109 30.937 C 162.109 31.137,161.922 31.301,161.694 31.301 C 161.027 31.301,151.379 34.817,150.529 35.370 C 150.102 35.648,147.977 36.634,145.806 37.562 C 143.636 38.489,141.748 39.425,141.610 39.641 C 141.473 39.856,141.356 39.885,141.351 39.703 C 141.345 39.518,141.235 39.536,141.099 39.744 C 140.966 39.948,139.391 40.893,137.600 41.845 C 135.809 42.797,133.437 44.194,132.328 44.949 C 131.220 45.704,129.922 46.516,129.445 46.755 C 128.967 46.993,128.003 47.688,127.303 48.299 C 126.603 48.911,125.907 49.414,125.758 49.417 C 125.292 49.428,118.244 54.952,114.224 58.457 C 111.246 61.054,102.834 69.481,101.205 71.499 C 100.400 72.496,99.322 73.756,98.808 74.300 C 97.219 75.980,94.321 79.769,92.382 82.702 C 91.363 84.242,90.259 85.800,89.928 86.164 C 88.939 87.252,85.185 93.486,83.183 97.364 C 82.154 99.357,81.110 101.219,80.861 101.500 C 80.613 101.782,79.522 104.116,78.436 106.686 C 77.350 109.257,76.251 111.695,75.994 112.105 C 75.737 112.515,74.760 115.148,73.824 117.957 C 72.887 120.766,71.925 123.435,71.686 123.888 C 71.208 124.793,68.478 135.869,67.828 139.539 C 67.603 140.807,67.315 141.919,67.187 142.010 C 65.764 143.022,64.555 175.142,65.563 185.173 C 66.098 190.496,66.860 195.763,67.208 196.540 C 67.370 196.903,67.961 199.436,68.521 202.170 C 70.019 209.487,75.120 226.004,76.093 226.689 C 76.222 226.779,77.042 228.558,77.916 230.643 C 79.524 234.479,83.108 241.572,84.657 243.987 C 85.122 244.712,86.466 246.884,87.644 248.813 C 90.134 252.893,93.897 258.436,94.281 258.591 C 94.427 258.650,95.310 259.762,96.244 261.063 C 97.177 262.363,98.301 263.774,98.742 264.198 C 99.182 264.623,100.289 265.920,101.201 267.081 C 102.114 268.243,102.967 269.193,103.098 269.193 C 103.228 269.193,104.199 270.194,105.256 271.417 C 108.068 274.671,118.979 284.462,122.076 286.510 C 122.801 286.990,123.764 287.708,124.217 288.107 C 124.671 288.505,125.931 289.399,127.018 290.092 C 128.105 290.785,129.292 291.613,129.654 291.933 C 130.016 292.252,131.944 293.444,133.937 294.582 C 135.931 295.719,137.636 296.741,137.727 296.853 C 137.817 296.966,139.522 297.857,141.516 298.835 C 143.509 299.813,145.249 300.772,145.382 300.966 C 145.529 301.180,145.628 301.189,145.634 300.988 C 145.641 300.776,145.730 300.779,145.886 300.997 C 146.124 301.328,152.466 304.120,152.979 304.119 C 153.123 304.119,154.161 304.548,155.286 305.073 C 157.268 305.998,163.665 308.095,168.040 309.255 C 169.217 309.567,170.329 309.935,170.511 310.073 C 171.034 310.469,180.736 312.295,186.586 313.097 C 194.493 314.182,214.074 314.182,221.981 313.097 C 227.928 312.281,237.631 310.449,237.889 310.093 C 237.981 309.967,238.871 309.665,239.868 309.422 C 242.792 308.710,251.149 306.093,252.224 305.552 C 252.768 305.278,254.621 304.490,256.343 303.800 C 261.953 301.551,262.436 301.345,262.603 301.135 C 262.694 301.021,264.547 300.059,266.722 298.996 C 268.896 297.933,270.750 296.967,270.840 296.849 C 270.931 296.732,272.244 295.935,273.759 295.078 C 277.002 293.245,283.121 289.126,285.615 287.098 C 286.583 286.311,287.479 285.667,287.606 285.667 C 287.733 285.667,288.720 284.856,289.800 283.865 C 290.879 282.874,291.876 282.058,292.015 282.053 C 292.461 282.035,301.577 273.403,303.590 271.092 C 304.659 269.866,305.642 268.863,305.775 268.863 C 305.908 268.863,306.612 268.075,307.339 267.111 C 308.067 266.147,309.093 264.924,309.619 264.393 C 311.820 262.170,318.204 253.309,321.115 248.435 C 322.144 246.713,323.239 245.008,323.550 244.646 C 323.860 244.283,324.897 242.430,325.854 240.527 C 326.812 238.624,327.862 236.623,328.188 236.079 C 328.515 235.535,329.617 233.108,330.637 230.685 C 331.657 228.262,332.690 225.964,332.932 225.578 C 333.174 225.192,334.166 222.430,335.137 219.440 C 336.108 216.450,337.002 213.928,337.123 213.836 C 337.430 213.602,339.852 203.575,340.703 199.012 C 341.092 196.928,341.540 194.926,341.698 194.563 C 343.760 189.856,343.696 143.987,341.628 143.987 C 341.476 143.987,341.351 143.702,341.351 143.354 C 341.351 141.318,337.484 124.678,336.609 122.950 C 336.365 122.469,335.460 120.000,334.597 117.463 C 333.735 114.926,332.927 112.776,332.804 112.685 C 332.680 112.595,331.646 110.297,330.507 107.578 C 329.368 104.860,328.244 102.414,328.010 102.142 C 327.776 101.870,326.808 100.094,325.860 98.194 C 324.911 96.295,323.807 94.294,323.405 93.746 C 323.003 93.199,321.959 91.491,321.085 89.951 C 320.211 88.410,319.311 87.002,319.085 86.820 C 318.859 86.639,317.821 85.157,316.779 83.526 C 315.738 81.895,314.694 80.412,314.461 80.231 C 314.228 80.049,313.325 78.931,312.455 77.745 C 307.730 71.304,297.791 61.117,290.445 55.186 C 289.357 54.308,288.394 53.498,288.303 53.386 C 288.213 53.274,286.952 52.344,285.502 51.318 C 284.053 50.293,281.961 48.780,280.855 47.956 C 279.748 47.132,278.752 46.458,278.642 46.458 C 278.532 46.458,277.213 45.659,275.712 44.683 C 274.210 43.707,271.800 42.292,270.356 41.538 C 268.912 40.784,267.616 39.988,267.478 39.770 C 267.339 39.552,267.221 39.522,267.216 39.703 C 267.210 39.888,267.099 39.870,266.964 39.662 C 266.831 39.458,264.942 38.521,262.768 37.579 C 260.593 36.637,258.465 35.642,258.038 35.366 C 257.182 34.814,247.534 31.301,246.872 31.301 C 246.645 31.301,246.458 31.137,246.458 30.937 C 246.458 30.736,246.245 30.654,245.985 30.753 C 245.725 30.853,245.465 30.812,245.408 30.662 C 245.296 30.366,236.182 28.052,231.631 27.164 C 230.091 26.864,228.534 26.489,228.171 26.332 C 225.596 25.216,195.923 24.117,189.951 24.917 M178.820 49.962 C 178.887 50.167,178.709 50.569,178.423 50.854 C 177.662 51.616,182.136 68.333,183.380 69.370 C 183.822 69.739,184.185 70.362,184.185 70.754 L 184.185 71.466 175.700 71.400 L 167.216 71.334 164.865 70.232 C 159.753 67.835,156.362 61.601,157.800 57.242 C 158.983 53.658,161.714 52.260,170.511 50.734 C 171.598 50.545,173.526 50.184,174.794 49.932 C 177.414 49.410,178.642 49.420,178.820 49.962 M196.705 49.932 C 205.172 51.299,207.531 52.586,214.498 59.638 C 221.235 66.458,222.246 67.181,226.670 68.348 C 257.807 76.561,288.083 98.740,302.711 124.053 C 314.944 145.219,319.436 165.829,316.608 187.809 C 315.686 194.972,312.809 205.164,310.375 209.885 C 309.861 210.881,308.812 212.957,308.043 214.498 C 297.043 236.542,271.595 254.985,244.646 260.443 C 234.282 262.542,215.384 263.547,209.226 262.328 C 186.979 257.921,172.622 246.118,165.075 226.030 C 164.837 225.395,164.294 224.094,163.870 223.137 C 163.445 222.180,163.097 221.183,163.097 220.920 C 163.097 220.658,162.727 220.201,162.273 219.904 C 158.031 217.124,172.127 205.398,184.732 201.223 C 190.046 199.462,194.120 198.754,202.153 198.194 C 209.278 197.697,213.814 196.956,216.342 195.878 C 217.049 195.576,219.481 194.733,221.746 194.003 C 224.012 193.274,227.941 191.751,230.478 190.617 C 233.015 189.484,235.461 188.443,235.914 188.304 C 253.021 183.061,263.437 161.553,260.808 136.903 C 257.654 107.334,246.275 86.510,226.738 74.552 C 223.972 72.860,221.118 73.602,218.123 76.794 C 214.724 80.415,212.910 80.069,198.847 73.121 C 191.684 69.582,189.071 69.214,186.492 71.384 C 185.130 72.530,184.853 72.128,186.035 70.721 C 186.558 70.099,187.490 68.688,188.108 67.586 C 190.492 63.329,191.822 62.825,200.247 62.986 C 203.554 63.050,206.260 63.017,206.260 62.913 C 206.260 62.809,201.712 60.510,196.152 57.803 C 186.470 53.090,182.756 50.960,182.982 50.247 C 183.266 49.348,191.870 49.151,196.705 49.932 M168.699 54.988 C 162.432 56.420,161.429 59.874,165.930 64.521 L 167.672 66.319 171.653 66.155 C 176.441 65.958,176.063 66.313,175.090 62.931 C 172.292 53.201,172.949 54.017,168.699 54.988 M151.565 58.949 C 152.540 59.618,153.565 61.578,155.977 67.381 C 157.362 70.715,157.947 71.759,158.615 72.094 C 160.293 72.935,159.718 73.602,156.147 74.954 C 152.501 76.335,152.066 76.259,152.407 74.300 C 152.586 73.272,148.935 64.872,147.732 63.543 C 146.500 62.181,142.003 63.946,140.218 66.492 L 139.224 67.911 141.892 73.077 C 143.996 77.150,144.726 78.282,145.343 78.427 C 146.944 78.805,146.449 79.651,143.518 81.541 C 140.222 83.668,139.951 83.726,140.076 82.280 C 140.142 81.505,139.761 80.458,138.725 78.574 C 134.695 71.241,134.779 71.436,134.770 69.424 C 134.742 63.356,146.920 55.761,151.565 58.949 M129.484 71.252 C 129.481 71.479,129.351 71.866,129.194 72.114 C 128.690 72.910,136.041 84.349,137.058 84.349 C 137.551 84.349,137.727 84.565,137.727 85.173 C 137.727 85.626,137.610 85.997,137.468 85.997 C 137.326 85.997,136.041 86.969,134.612 88.156 C 130.803 91.323,130.707 91.353,130.415 89.456 C 130.308 88.766,124.972 86.682,123.263 86.664 L 122.474 86.656 122.707 90.847 C 122.941 95.059,123.207 95.995,124.077 95.662 C 125.288 95.197,124.398 96.937,122.548 98.649 C 119.697 101.289,117.817 102.100,118.466 100.411 C 118.583 100.104,117.688 99.136,115.913 97.650 C 111.440 93.905,111.113 93.699,110.366 94.165 C 109.116 94.946,109.517 94.199,112.793 89.646 C 114.617 87.110,115.537 86.496,115.144 88.076 C 115.004 88.639,115.401 89.228,116.953 90.761 L 118.940 92.725 118.928 87.213 C 118.921 84.181,119.017 81.535,119.141 81.334 C 119.437 80.855,124.074 81.228,126.465 81.923 C 128.753 82.588,128.749 82.636,126.629 79.493 C 125.038 77.136,124.723 76.830,124.181 77.120 C 122.704 77.911,123.678 76.040,126.064 73.503 C 128.415 71.004,129.496 70.293,129.484 71.252 M196.361 84.836 C 204.226 85.885,212.200 88.665,218.731 92.632 C 219.883 93.332,220.893 93.904,220.976 93.904 C 221.388 93.904,226.542 98.088,228.559 100.060 C 234.299 105.672,239.526 114.906,243.229 125.974 C 244.128 128.662,245.156 131.153,245.513 131.510 C 248.254 134.250,236.090 143.498,224.781 147.272 C 218.787 149.273,216.211 149.617,204.942 149.924 C 194.971 150.195,191.812 150.519,189.127 151.545 C 188.674 151.718,186.227 152.390,183.690 153.040 C 181.153 153.689,177.076 154.944,174.629 155.828 C 172.183 156.712,169.046 157.830,167.660 158.312 C 150.879 164.137,141.117 181.526,141.295 205.275 C 141.488 230.960,148.257 249.414,163.156 264.873 C 171.498 273.527,175.354 274.782,179.651 270.238 C 181.597 268.182,182.984 267.662,185.114 268.192 C 186.979 268.655,194.803 272.569,198.486 274.880 C 204.670 278.760,208.430 279.604,210.958 277.677 C 212.503 276.500,212.885 276.519,211.738 277.717 C 211.239 278.237,210.062 279.817,209.122 281.229 C 206.401 285.315,203.492 286.049,194.563 284.905 C 189.358 284.237,189.381 284.279,196.376 288.216 C 209.075 295.363,213.735 298.404,213.042 299.093 C 212.447 299.683,203.824 299.320,200.356 298.558 C 190.989 296.500,187.454 294.265,181.557 286.666 C 178.570 282.818,174.327 278.748,173.303 278.748 C 172.305 278.748,164.522 275.727,158.612 273.045 C 137.493 263.463,116.985 246.332,104.975 228.241 C 82.102 193.787,81.359 149.055,103.194 121.005 C 107.845 115.029,108.665 114.123,113.437 109.677 C 134.717 89.850,165.295 80.689,196.361 84.836 M107.743 98.119 C 107.743 98.502,108.526 99.161,109.967 99.992 C 111.190 100.697,112.745 101.703,113.422 102.226 C 114.099 102.750,114.989 103.151,115.399 103.118 C 117.129 102.977,116.898 103.355,113.674 105.935 C 112.496 106.878,110.939 108.268,110.214 109.023 C 107.276 112.087,103.851 113.577,102.155 112.529 C 101.304 112.003,102.251 110.109,105.562 105.712 C 106.498 104.470,106.623 104.139,106.216 103.982 C 105.396 103.668,104.279 103.761,103.861 104.179 C 103.149 104.890,103.038 104.164,103.690 103.062 C 106.359 98.548,107.743 96.860,107.743 98.119 M108.454 105.535 C 108.098 105.934,107.187 106.958,106.429 107.811 C 103.731 110.844,105.590 110.634,108.613 107.564 C 110.599 105.547,110.622 105.503,109.868 105.159 C 109.229 104.868,108.991 104.932,108.454 105.535 M154.837 115.424 C 152.096 116.196,147.771 119.656,148.633 120.387 C 149.220 120.885,150.906 120.848,150.907 120.338 C 150.911 118.516,153.216 116.639,155.448 116.639 C 157.082 116.639,157.227 116.810,156.566 117.961 C 155.848 119.212,156.238 119.512,157.456 118.644 C 158.302 118.042,158.482 118.012,158.718 118.434 C 158.976 118.894,162.063 117.236,162.098 116.618 C 162.156 115.611,157.115 114.782,154.837 115.424 M257.000 224.465 C 256.997 226.339,254.664 228.336,252.476 228.336 C 251.175 228.336,250.969 228.046,251.595 227.092 C 252.349 225.940,251.732 225.509,250.601 226.399 C 249.905 226.946,249.627 227.018,249.430 226.700 C 249.136 226.224,248.714 226.417,247.166 227.738 C 245.867 228.846,245.862 228.817,247.453 229.454 C 250.909 230.836,255.975 229.215,258.322 225.974 C 259.625 224.175,259.592 223.723,258.155 223.723 C 257.179 223.723,257.001 223.837,257.000 224.465 M293.895 241.016 C 296.853 242.546,296.826 244.263,293.766 249.349 L 291.332 253.393 292.351 253.920 C 293.139 254.327,293.505 254.362,293.966 254.074 C 295.126 253.350,294.600 254.526,292.504 257.340 C 290.679 259.791,290.434 260.010,290.346 259.265 C 290.280 258.710,289.466 257.725,287.952 256.370 C 286.691 255.240,285.434 253.882,285.160 253.352 C 284.865 252.781,284.397 252.389,284.011 252.389 C 282.834 252.389,283.305 251.275,285.758 248.256 C 287.076 246.633,288.488 244.763,288.895 244.101 C 290.606 241.320,292.373 240.229,293.895 241.016 M291.043 247.144 C 290.533 247.884,289.782 248.906,289.374 249.416 C 288.474 250.540,288.457 250.810,289.244 251.522 C 289.978 252.187,290.088 252.085,292.009 248.962 C 293.943 245.818,293.078 244.192,291.043 247.144 M282.058 254.914 C 282.260 256.399,282.862 257.266,285.736 260.213 C 287.310 261.828,287.839 262.192,288.188 261.903 C 289.979 260.417,287.937 263.937,285.537 266.474 C 283.986 268.114,283.560 268.230,283.844 266.935 C 284.014 266.161,283.803 265.684,282.636 264.217 L 281.221 262.438 280.847 267.000 C 280.335 273.259,280.638 273.135,273.416 270.050 L 272.203 269.532 273.479 272.245 C 274.232 273.846,274.957 274.961,275.246 274.963 C 276.822 274.977,276.135 275.926,272.584 278.647 C 270.067 280.574,269.475 280.682,270.071 279.101 C 270.667 277.524,266.444 267.695,265.017 267.337 C 264.264 267.148,263.887 265.898,264.583 265.898 C 264.766 265.898,266.171 265.071,267.705 264.061 C 270.587 262.163,271.170 262.062,271.170 263.461 C 271.170 264.287,275.760 266.886,277.219 266.886 C 278.128 266.886,278.017 259.469,277.100 258.979 C 276.028 258.405,276.313 257.842,278.830 255.562 C 281.526 253.120,281.806 253.064,282.058 254.914 M262.042 268.083 C 262.157 268.197,262.108 268.558,261.933 268.883 C 261.693 269.333,262.029 270.415,263.328 273.371 C 265.573 278.476,265.780 280.675,264.262 283.274 C 261.714 287.634,253.463 291.697,249.386 290.599 C 246.963 289.947,246.615 289.326,244.021 281.028 C 242.724 276.881,242.402 276.171,241.662 275.834 C 240.292 275.210,240.851 274.756,244.002 273.932 C 248.238 272.824,249.644 272.928,248.658 274.276 C 248.161 274.955,250.982 283.741,252.037 284.800 C 253.766 286.537,259.468 283.982,260.178 281.153 C 260.364 280.410,259.542 277.318,258.749 275.783 C 258.515 275.329,258.323 274.846,258.322 274.708 C 258.314 273.827,256.853 271.499,256.306 271.499 C 255.919 271.499,255.684 271.268,255.684 270.887 C 255.684 269.910,261.364 267.405,262.042 268.083 M237.068 277.174 C 240.576 279.031,241.262 283.309,238.457 285.849 C 236.785 287.364,234.997 287.967,229.606 288.837 C 227.730 289.140,226.065 289.503,225.906 289.644 C 225.381 290.112,227.626 295.957,228.714 296.957 C 230.071 298.204,229.811 298.589,227.158 299.253 C 222.009 300.543,219.545 300.126,221.183 298.243 C 221.445 297.941,221.591 297.471,221.507 297.199 C 221.315 296.583,217.359 285.602,216.282 282.695 C 215.844 281.513,215.486 280.372,215.486 280.158 C 215.486 279.945,214.967 279.374,214.333 278.890 C 212.224 277.282,212.613 277.105,218.369 277.057 C 221.223 277.034,224.671 276.901,226.030 276.762 C 230.069 276.351,235.924 276.569,237.068 277.174 M227.842 280.782 C 226.573 280.945,224.921 281.154,224.170 281.246 L 222.805 281.414 223.327 283.046 C 223.928 284.926,223.782 284.890,228.501 284.316 C 232.337 283.848,233.608 283.333,233.608 282.243 C 233.608 280.532,232.320 280.205,227.842 280.782 " stroke="none" fill="#b0b0b0" fill-rule="evenodd"></path><path id="path1" d="M185.524 49.797 C 183.369 50.155,183.289 50.217,184.019 50.973 C 184.760 51.739,202.607 60.846,203.788 61.061 C 203.968 61.093,204.313 61.343,204.554 61.614 C 204.794 61.886,204.898 61.925,204.785 61.701 C 204.649 61.432,204.753 61.360,205.088 61.488 C 205.368 61.596,205.501 61.839,205.384 62.029 C 205.266 62.220,205.325 62.279,205.514 62.162 C 205.704 62.045,207.393 62.615,209.268 63.429 C 212.983 65.042,213.221 65.095,214.138 64.522 C 214.626 64.217,215.065 64.246,216.193 64.656 C 216.982 64.942,218.022 65.264,218.503 65.371 C 218.985 65.478,219.652 65.662,219.986 65.780 C 220.320 65.898,219.913 65.452,219.081 64.790 C 218.249 64.127,217.065 62.957,216.450 62.188 C 209.455 53.447,203.977 50.613,192.422 49.755 C 189.975 49.574,187.825 49.442,187.644 49.463 C 187.463 49.483,186.509 49.634,185.524 49.797 M194.893 63.265 C 192.402 63.517,190.774 64.033,190.774 64.572 C 190.774 64.757,190.578 64.909,190.339 64.909 C 190.099 64.909,189.258 66.058,188.470 67.463 C 187.681 68.867,186.654 70.461,186.187 71.004 L 185.338 71.991 186.161 71.292 C 188.037 69.701,190.199 69.423,193.374 70.366 C 194.900 70.819,199.544 73.080,200.525 73.848 C 200.722 74.003,200.982 74.032,201.101 73.913 C 201.220 73.793,201.318 73.857,201.318 74.054 C 201.318 74.251,202.096 74.668,203.048 74.980 C 203.999 75.293,206.016 76.126,207.530 76.832 C 213.610 79.666,215.287 79.582,218.287 76.292 C 220.365 74.012,221.404 73.487,223.886 73.463 L 225.206 73.450 224.180 73.004 C 223.256 72.601,221.078 71.212,216.804 68.297 C 214.448 66.690,209.608 64.708,206.919 64.249 C 205.097 63.938,204.621 63.759,205.107 63.568 C 205.490 63.417,204.156 63.299,201.922 63.285 C 199.807 63.272,197.879 63.210,197.638 63.147 C 197.397 63.084,196.161 63.137,194.893 63.265 M218.026 67.486 C 220.609 69.911,224.927 72.316,225.902 71.872 C 226.487 71.605,226.730 71.628,226.926 71.968 C 227.067 72.214,227.479 72.470,227.842 72.537 C 228.245 72.613,228.640 73.089,228.859 73.765 C 229.056 74.372,229.797 75.376,230.506 75.996 L 231.796 77.123 229.901 75.949 C 228.859 75.302,228.007 74.840,228.007 74.921 C 228.007 75.294,232.069 77.731,232.375 77.542 C 232.566 77.424,232.625 77.484,232.507 77.675 C 232.389 77.866,233.741 79.284,235.512 80.826 C 240.839 85.466,247.491 93.476,250.203 98.517 C 253.267 104.213,254.330 106.616,256.184 112.026 C 268.153 146.963,259.909 179.556,236.903 188.248 C 235.725 188.693,233.104 189.809,231.079 190.729 C 229.054 191.649,225.125 193.167,222.348 194.102 C 219.571 195.038,216.905 196.002,216.423 196.246 C 214.621 197.160,209.455 198.027,203.881 198.353 C 191.028 199.103,183.882 200.929,175.783 205.533 C 170.099 208.764,161.816 215.632,162.626 216.442 C 162.734 216.550,163.009 216.382,163.237 216.070 C 165.207 213.377,175.082 215.063,181.713 219.226 C 185.259 221.451,191.608 225.564,193.299 226.731 C 194.054 227.251,194.820 227.677,195.002 227.677 C 195.183 227.677,195.382 227.811,195.442 227.974 C 195.502 228.137,196.895 228.873,198.537 229.610 C 203.412 231.799,205.776 232.064,218.616 231.859 C 224.612 231.763,230.672 231.825,232.125 231.996 C 233.575 232.167,235.251 232.365,235.849 232.437 C 236.448 232.509,237.134 232.730,237.374 232.930 C 238.062 233.501,248.807 233.784,251.563 233.303 C 255.286 232.654,258.240 231.488,261.029 229.566 C 262.342 228.661,262.368 229.859,261.063 231.137 C 256.954 235.160,253.930 235.814,238.221 236.076 C 232.331 236.175,226.697 236.334,225.700 236.430 C 217.620 237.211,206.036 237.297,202.471 236.603 C 194.202 234.993,190.184 233.209,180.719 226.945 C 173.193 221.964,170.415 220.645,165.317 219.629 C 162.262 219.021,162.215 218.411,165.885 227.018 C 168.628 233.452,173.174 240.906,176.843 244.987 C 177.166 245.346,177.875 246.158,178.418 246.791 C 178.962 247.423,179.518 247.978,179.654 248.023 C 179.790 248.068,179.864 248.156,179.819 248.219 C 179.737 248.332,181.243 249.616,184.345 252.076 C 185.248 252.793,187.435 254.077,189.205 254.930 C 190.974 255.783,192.422 256.606,192.422 256.760 C 192.422 256.914,192.587 256.939,192.788 256.814 C 192.990 256.690,193.281 256.792,193.435 257.042 C 193.589 257.292,193.832 257.502,193.975 257.508 C 194.777 257.547,196.046 258.048,196.046 258.326 C 196.046 258.504,196.315 258.649,196.643 258.649 C 196.971 258.649,198.120 258.994,199.196 259.415 C 200.273 259.836,202.191 260.439,203.460 260.755 C 204.728 261.071,206.328 261.476,207.016 261.654 C 207.703 261.833,208.741 262.060,209.322 262.159 C 211.278 262.491,218.604 262.568,219.934 262.270 C 220.659 262.107,222.957 261.679,225.041 261.319 C 233.845 259.795,243.685 256.974,250.068 254.144 C 252.375 253.121,259.107 249.901,260.627 249.094 C 265.009 246.767,265.836 246.301,267.051 245.482 C 267.776 244.992,269.926 243.580,271.829 242.342 C 280.734 236.552,288.278 229.362,293.180 221.993 C 293.994 220.770,294.771 219.769,294.906 219.769 C 295.041 219.769,295.240 219.539,295.348 219.258 C 295.482 218.910,295.414 218.826,295.136 218.994 C 294.274 219.515,281.738 227.867,280.807 228.540 C 280.122 229.035,280.066 229.034,280.066 228.536 C 280.066 227.805,284.839 223.164,288.434 220.401 C 302.434 209.641,305.355 203.782,302.633 191.928 C 302.217 190.115,301.706 187.885,301.498 186.972 C 301.291 186.059,301.017 184.091,300.890 182.600 L 300.659 179.887 299.012 181.255 C 298.105 182.006,296.260 183.368,294.909 184.281 C 290.081 187.546,285.297 193.137,283.002 198.199 C 282.082 200.230,281.613 202.552,280.554 210.332 C 279.765 216.127,277.737 221.501,276.144 222.015 C 275.637 222.179,275.683 221.936,276.632 219.440 C 277.060 218.312,277.254 216.303,277.440 211.038 C 277.941 196.916,281.200 191.487,295.779 180.491 C 303.399 174.745,303.449 174.726,303.483 177.697 C 303.496 178.818,303.645 180.033,303.814 180.395 C 304.031 180.859,304.076 180.517,303.965 179.242 C 303.878 178.245,303.716 175.725,303.604 173.641 C 303.493 171.557,303.185 168.517,302.920 166.886 C 302.656 165.255,302.148 162.105,301.793 159.885 C 300.843 153.959,299.090 147.466,297.740 144.876 C 296.595 142.680,294.319 139.314,293.837 139.102 C 293.358 138.893,290.364 134.912,290.137 134.185 C 290.010 133.777,289.768 133.443,289.599 133.443 C 289.430 133.443,289.292 133.291,289.292 133.106 C 289.292 132.920,288.810 132.046,288.221 131.164 C 286.115 128.008,283.511 123.755,282.676 122.106 C 282.209 121.183,281.464 119.835,281.021 119.110 C 280.578 118.386,280.010 117.387,279.759 116.892 C 279.507 116.397,279.031 115.701,278.701 115.346 C 278.033 114.630,277.295 113.386,275.361 109.720 C 274.644 108.361,273.797 106.878,273.480 106.425 C 273.163 105.972,272.804 105.281,272.683 104.890 C 272.561 104.498,272.245 103.998,271.981 103.779 C 271.716 103.559,271.499 103.101,271.499 102.760 C 271.499 102.420,271.383 102.142,271.241 102.142 C 271.099 102.142,270.703 101.660,270.361 101.071 C 269.717 99.962,267.455 96.967,265.733 94.944 C 263.885 92.774,261.257 90.342,259.040 88.750 C 258.247 88.181,256.982 87.139,256.229 86.436 C 254.022 84.373,249.097 80.864,246.103 79.221 C 243.297 77.680,240.277 75.508,238.287 73.598 C 237.689 73.024,236.764 72.374,236.232 72.153 C 235.699 71.933,235.355 71.605,235.466 71.426 C 235.591 71.223,235.387 71.188,234.926 71.334 C 234.480 71.476,234.262 71.444,234.380 71.254 C 234.565 70.954,230.372 69.556,225.700 68.359 C 224.522 68.057,223.336 67.727,223.064 67.627 C 222.792 67.526,222.315 67.475,222.004 67.514 C 221.692 67.552,220.386 67.204,219.101 66.741 C 216.051 65.640,216.057 65.637,218.026 67.486 M225.398 73.599 C 225.737 73.902,227.677 74.794,227.677 74.646 C 227.677 74.456,225.850 73.476,225.497 73.476 C 225.367 73.476,225.323 73.531,225.398 73.599 M249.423 77.265 C 249.876 77.524,250.395 77.736,250.577 77.736 C 250.758 77.736,250.535 77.524,250.082 77.265 C 249.629 77.006,249.110 76.794,248.929 76.794 C 248.748 76.794,248.970 77.006,249.423 77.265 M173.558 84.591 C 174.329 84.660,175.589 84.660,176.359 84.591 C 177.129 84.521,176.499 84.464,174.959 84.464 C 173.418 84.464,172.788 84.521,173.558 84.591 M189.786 84.653 L 191.928 84.843 188.506 85.095 C 172.608 86.265,155.063 91.528,140.527 99.489 C 128.661 105.987,123.144 110.370,115.009 119.764 L 111.896 123.358 113.526 122.433 C 114.423 121.923,117.158 120.396,119.605 119.039 C 122.051 117.681,124.972 115.995,126.096 115.292 C 132.196 111.475,125.880 117.700,118.946 122.340 C 103.585 132.617,101.293 137.256,103.773 153.048 C 104.207 155.814,104.437 158.475,104.348 159.695 L 104.198 161.730 106.547 160.140 C 107.839 159.266,110.157 157.747,111.697 156.765 C 120.322 151.268,124.048 145.520,126.189 134.406 C 127.504 127.581,128.557 124.779,130.914 121.829 C 132.018 120.447,132.454 121.314,131.484 122.963 C 130.574 124.511,130.208 126.457,129.812 131.848 C 129.116 141.328,126.044 148.030,119.723 153.852 C 117.094 156.274,102.328 166.217,101.824 165.905 C 101.636 165.789,101.460 164.480,101.432 162.995 L 101.382 160.297 101.176 162.438 C 100.485 169.598,102.251 188.745,104.133 194.502 C 105.214 197.809,107.199 201.537,108.552 202.801 C 109.108 203.320,111.255 206.495,111.560 207.249 C 111.670 207.521,111.821 207.891,111.896 208.072 C 111.971 208.254,112.349 208.921,112.736 209.555 C 113.123 210.189,113.965 211.746,114.608 213.015 C 115.250 214.283,115.859 215.395,115.961 215.486 C 116.178 215.681,117.642 218.648,119.779 223.229 C 120.625 225.041,121.673 226.996,122.108 227.573 C 122.543 228.150,122.900 228.726,122.900 228.853 C 122.900 229.068,123.642 230.651,126.902 237.382 C 127.600 238.824,128.171 240.125,128.171 240.273 C 128.171 241.694,134.895 250.760,138.294 253.922 C 140.212 255.706,142.093 257.524,142.473 257.961 C 142.852 258.398,143.442 258.992,143.784 259.279 C 144.125 259.567,145.461 260.715,146.753 261.831 C 148.045 262.946,150.657 264.892,152.557 266.154 C 154.458 267.416,156.903 269.365,157.990 270.485 C 159.077 271.605,160.597 272.899,161.367 273.360 C 162.160 273.834,162.673 274.352,162.549 274.552 C 162.411 274.776,162.532 274.829,162.878 274.696 C 163.180 274.580,163.427 274.603,163.427 274.748 C 163.427 275.170,173.464 278.827,174.629 278.829 C 174.901 278.829,176.087 279.240,177.265 279.741 C 181.071 281.359,181.233 281.341,179.399 279.502 C 176.200 276.295,172.545 273.965,171.568 274.512 C 171.147 274.747,170.947 274.697,170.802 274.318 C 170.693 274.036,170.402 273.806,170.154 273.806 C 169.596 273.806,168.570 272.303,168.835 271.874 C 168.942 271.702,168.250 270.854,167.299 269.989 C 165.279 268.154,165.640 268.319,168.661 270.610 C 169.860 271.519,171.507 272.555,172.323 272.912 C 173.885 273.596,177.441 276.068,179.852 278.147 C 181.861 279.880,186.882 282.467,189.621 283.181 C 190.890 283.512,192.298 283.986,192.751 284.234 C 193.211 284.486,195.320 284.805,197.529 284.958 C 205.005 285.473,206.414 285.082,208.366 281.955 C 209.071 280.825,209.922 279.502,210.257 279.013 L 210.866 278.126 209.644 278.636 C 207.257 279.633,203.927 278.609,198.756 275.288 C 196.931 274.116,194.701 272.867,193.801 272.512 C 192.900 272.157,191.417 271.407,190.505 270.846 C 184.969 267.440,181.912 267.462,179.231 270.929 C 176.625 274.299,172.748 273.711,167.228 269.110 C 166.630 268.612,165.978 268.204,165.780 268.204 C 165.581 268.204,165.188 267.853,164.907 267.423 C 164.625 266.993,163.292 265.506,161.944 264.118 C 150.342 252.172,143.397 236.388,141.487 217.628 C 138.709 190.348,145.054 171.533,160.406 161.516 C 162.816 159.944,167.927 157.519,168.867 157.502 C 169.050 157.499,171.472 156.679,174.248 155.681 C 177.025 154.683,181.026 153.411,183.141 152.854 C 185.255 152.298,188.110 151.493,189.484 151.067 C 192.951 149.992,197.326 149.610,205.601 149.660 C 217.805 149.733,228.081 146.979,236.252 141.444 C 237.532 140.577,239.128 139.542,239.800 139.143 C 240.472 138.744,242.059 137.351,243.328 136.047 C 244.915 134.415,245.240 133.966,244.371 134.608 C 239.378 138.294,228.815 133.898,214.992 122.384 C 208.506 116.981,204.208 115.902,186.161 115.145 C 179.599 114.869,172.117 113.801,171.154 113.002 C 170.949 112.832,170.127 112.612,169.328 112.514 C 168.529 112.415,166.911 112.182,165.733 111.995 C 159.524 111.010,152.627 111.843,148.583 114.066 C 145.303 115.870,145.457 114.440,148.786 112.185 C 152.592 109.606,157.564 108.889,166.154 109.679 C 169.741 110.009,180.563 110.304,193.410 110.421 C 206.423 110.541,215.375 113.552,225.041 121.061 C 234.501 128.410,238.999 130.910,243.987 131.591 C 244.712 131.690,245.342 131.776,245.387 131.783 C 245.432 131.790,245.490 132.203,245.514 132.702 C 245.557 133.561,245.567 133.566,245.710 132.809 C 245.811 132.268,245.643 131.842,245.188 131.491 C 244.818 131.205,244.155 129.860,243.713 128.501 C 240.152 117.533,234.404 106.458,230.203 102.471 C 229.726 102.018,229.333 101.519,229.330 101.362 C 229.323 100.990,226.689 98.352,226.689 98.717 C 226.689 98.869,226.455 98.660,226.169 98.252 C 225.545 97.360,221.166 94.234,220.541 94.234 C 220.298 94.234,220.099 94.077,220.099 93.885 C 220.099 93.693,219.951 93.628,219.769 93.740 C 219.588 93.852,219.440 93.779,219.440 93.578 C 219.440 93.376,218.884 92.982,218.204 92.702 C 217.525 92.421,216.730 91.979,216.437 91.720 C 216.145 91.460,215.563 91.182,215.143 91.101 C 214.724 91.021,214.296 90.831,214.192 90.680 C 213.951 90.331,206.522 87.207,204.778 86.722 C 200.528 85.539,199.081 85.259,195.058 84.836 C 192.611 84.579,189.942 84.390,189.127 84.416 C 187.912 84.454,188.031 84.497,189.786 84.653 M134.349 94.914 C 133.307 95.452,132.455 95.966,132.455 96.056 C 132.455 96.203,136.376 94.337,136.711 94.030 C 137.142 93.635,135.995 94.065,134.349 94.914 M281.878 99.176 C 282.586 99.901,283.239 100.494,283.330 100.494 C 283.420 100.494,282.915 99.901,282.208 99.176 C 281.500 98.451,280.846 97.858,280.756 97.858 C 280.665 97.858,281.170 98.451,281.878 99.176 M120.337 103.955 C 118.847 105.133,117.628 106.173,117.628 106.265 C 117.628 106.412,122.217 102.892,123.048 102.108 C 124.028 101.183,122.690 102.094,120.337 103.955 M289.278 106.507 C 290.086 107.368,290.790 108.072,290.843 108.072 C 291.090 108.072,290.829 107.777,289.374 106.411 L 287.809 104.942 289.278 106.507 M114.333 109.155 C 112.792 110.616,112.051 111.397,112.685 110.891 C 114.253 109.640,117.359 106.703,117.234 106.591 C 117.179 106.540,115.873 107.694,114.333 109.155 M109.377 113.901 C 108.086 115.259,108.052 115.329,109.096 114.478 C 110.124 113.640,111.243 112.356,110.945 112.356 C 110.890 112.356,110.185 113.051,109.377 113.901 M160.738 114.359 C 161.854 114.916,162.768 115.511,162.768 115.680 C 162.768 115.855,163.339 115.897,164.086 115.777 C 165.622 115.532,165.869 116.037,164.490 116.608 C 163.988 116.816,162.691 117.892,161.607 118.999 C 158.635 122.035,155.261 123.247,151.812 122.516 C 150.861 122.315,149.749 122.133,149.341 122.113 C 148.933 122.092,148.600 121.949,148.600 121.793 C 148.600 121.638,148.377 121.596,148.105 121.701 C 147.834 121.805,147.611 121.764,147.611 121.610 C 147.611 121.455,147.315 121.251,146.952 121.157 C 146.215 120.964,146.047 120.264,146.737 120.264 C 146.982 120.264,147.436 119.699,147.747 119.010 C 149.909 114.216,156.051 112.016,160.738 114.359 M106.569 117.051 L 105.601 118.122 106.672 117.154 C 107.670 116.252,107.894 115.980,107.640 115.980 C 107.583 115.980,107.101 116.462,106.569 117.051 M154.942 117.838 C 155.728 118.066,155.662 118.383,154.740 118.810 C 154.125 119.095,153.900 119.065,153.648 118.664 C 153.387 118.251,153.280 118.240,153.055 118.604 C 152.868 118.907,152.906 118.970,153.175 118.804 C 153.460 118.628,153.508 118.800,153.351 119.425 C 153.101 120.424,153.870 120.505,154.273 119.522 C 154.403 119.205,154.792 118.946,155.138 118.946 C 155.852 118.946,156.622 119.709,156.267 120.064 C 156.139 120.193,156.325 120.194,156.682 120.065 C 157.716 119.694,157.848 119.579,157.637 119.236 C 157.509 119.029,157.286 119.039,157.016 119.263 C 156.525 119.671,155.765 118.967,155.919 118.247 C 155.975 117.986,155.679 117.780,155.189 117.739 C 154.728 117.701,154.619 117.744,154.942 117.838 M167.051 118.447 C 167.051 118.536,166.440 118.994,165.693 119.465 C 164.947 119.936,163.386 121.205,162.226 122.285 C 157.563 126.623,151.029 126.854,146.472 122.843 C 144.605 121.199,144.883 120.440,146.888 121.706 C 151.814 124.816,157.775 124.461,162.251 120.794 C 164.614 118.857,167.051 117.666,167.051 118.447 M152.598 120.016 C 152.559 120.806,152.670 120.917,153.460 120.878 C 154.206 120.841,154.238 120.808,153.645 120.693 C 153.228 120.612,152.864 120.248,152.783 119.831 C 152.668 119.238,152.635 119.271,152.598 120.016 M87.721 162.438 C 87.721 163.072,87.788 163.332,87.871 163.015 C 87.954 162.698,87.954 162.179,87.871 161.862 C 87.788 161.544,87.721 161.804,87.721 162.438 M87.425 167.381 C 87.425 168.740,87.484 169.296,87.555 168.616 C 87.626 167.937,87.626 166.825,87.555 166.145 C 87.484 165.465,87.425 166.021,87.425 167.381 M87.435 173.147 C 87.436 174.959,87.491 175.658,87.558 174.701 C 87.625 173.743,87.624 172.260,87.556 171.406 C 87.489 170.551,87.434 171.334,87.435 173.147 M317.045 171.334 C 317.045 171.969,317.113 172.228,317.196 171.911 C 317.279 171.594,317.279 171.075,317.196 170.758 C 317.113 170.441,317.045 170.700,317.045 171.334 M317.052 176.112 C 317.055 176.837,317.123 177.095,317.202 176.685 C 317.281 176.275,317.278 175.682,317.195 175.367 C 317.113 175.052,317.048 175.387,317.052 176.112 M87.721 178.913 C 87.721 179.547,87.788 179.806,87.871 179.489 C 87.954 179.172,87.954 178.653,87.871 178.336 C 87.788 178.019,87.721 178.278,87.721 178.913 M317.063 179.736 C 317.065 180.643,317.129 180.974,317.205 180.473 C 317.281 179.972,317.279 179.231,317.201 178.826 C 317.122 178.421,317.060 178.830,317.063 179.736 M313.817 199.259 C 313.708 199.757,313.548 200.387,313.462 200.659 C 313.362 200.975,313.415 201.035,313.611 200.824 C 313.939 200.469,314.415 198.353,314.166 198.353 C 314.083 198.353,313.927 198.760,313.817 199.259 M309.773 210.064 C 309.221 211.275,309.327 211.534,309.924 210.432 C 310.202 209.918,310.369 209.435,310.293 209.360 C 310.218 209.285,309.984 209.601,309.773 210.064 M259.410 220.246 C 261.527 221.317,263.190 222.866,262.609 223.225 C 262.402 223.353,261.982 223.241,261.676 222.974 C 257.844 219.638,249.356 220.557,245.634 224.712 C 244.707 225.747,242.320 227.348,241.703 227.348 C 240.937 227.348,241.076 226.859,241.980 226.375 C 242.417 226.141,243.862 224.840,245.191 223.484 C 249.609 218.976,254.637 217.831,259.410 220.246 M259.359 222.506 C 259.840 222.541,260.165 222.681,260.081 222.817 C 259.997 222.953,260.225 223.064,260.587 223.064 C 261.384 223.064,261.853 223.702,261.305 224.041 C 261.088 224.175,260.568 225.011,260.150 225.898 C 257.722 231.049,250.775 233.169,246.292 230.126 C 245.375 229.504,244.963 229.396,244.485 229.652 C 243.612 230.119,243.163 230.064,243.163 229.489 C 243.163 229.217,243.394 228.995,243.677 228.995 C 243.959 228.995,244.097 228.843,243.982 228.657 C 243.867 228.472,243.927 228.360,244.115 228.410 C 244.304 228.460,245.464 227.418,246.693 226.096 C 248.425 224.233,249.375 223.506,250.906 222.871 C 252.960 222.020,252.797 222.027,259.359 222.506 M250.988 225.068 C 250.671 225.252,250.417 225.656,250.423 225.964 C 250.432 226.420,250.554 226.380,251.083 225.745 L 251.731 224.966 251.938 225.999 C 252.051 226.567,252.299 227.127,252.487 227.244 C 252.698 227.374,252.749 227.245,252.620 226.907 C 252.495 226.582,252.573 226.355,252.811 226.349 C 253.032 226.344,252.953 226.188,252.636 226.003 C 252.319 225.819,252.059 225.452,252.059 225.190 C 252.059 224.633,251.788 224.602,250.988 225.068 M299.338 226.936 C 298.452 227.978,298.069 228.534,298.488 228.171 C 299.283 227.483,301.304 225.041,301.079 225.041 C 301.008 225.041,300.224 225.894,299.338 226.936 M290.932 236.161 L 288.138 239.044 291.021 236.251 C 293.699 233.657,294.055 233.278,293.815 233.278 C 293.765 233.278,292.468 234.576,290.932 236.161 M114.498 240.198 C 115.205 240.923,115.859 241.516,115.949 241.516 C 116.040 241.516,115.535 240.923,114.827 240.198 C 114.119 239.473,113.466 238.880,113.375 238.880 C 113.285 238.880,113.790 239.473,114.498 240.198 M285.823 240.717 L 284.185 242.225 285.914 240.830 C 287.466 239.579,287.840 239.209,287.553 239.209 C 287.502 239.209,286.724 239.888,285.823 240.717 M118.939 244.941 C 120.657 246.681,122.130 248.105,122.213 248.105 C 122.465 248.105,117.176 242.670,116.474 242.209 C 116.112 241.971,117.221 243.200,118.939 244.941 M124.547 250.247 C 125.162 250.881,125.739 251.400,125.829 251.400 C 125.920 251.400,125.491 250.881,124.876 250.247 C 124.262 249.613,123.685 249.094,123.594 249.094 C 123.503 249.094,123.932 249.613,124.547 250.247 M271.746 249.941 C 270.469 250.634,270.613 250.874,271.911 250.214 C 273.153 249.582,273.373 249.418,272.954 249.437 C 272.788 249.444,272.245 249.671,271.746 249.941 M229.572 262.177 C 229.979 262.255,230.647 262.255,231.054 262.177 C 231.462 262.098,231.129 262.034,230.313 262.034 C 229.498 262.034,229.164 262.098,229.572 262.177 M224.465 262.513 C 225.144 262.585,226.256 262.585,226.936 262.513 C 227.615 262.442,227.059 262.384,225.700 262.384 C 224.341 262.384,223.785 262.442,224.465 262.513 M178.470 282.455 C 179.207 283.225,180.869 285.285,182.162 287.032 C 187.303 293.978,191.767 296.627,201.489 298.503 C 205.183 299.216,211.315 299.413,212.191 298.847 C 212.521 298.634,212.548 298.526,212.273 298.522 C 212.047 298.520,211.862 298.309,211.862 298.055 C 211.862 297.577,210.090 296.466,204.789 293.617 C 203.708 293.036,202.744 292.445,202.647 292.304 C 202.283 291.774,192.645 286.217,192.952 286.714 C 193.076 286.915,192.720 286.809,192.159 286.478 C 191.598 286.147,191.208 285.765,191.292 285.630 C 191.376 285.494,191.270 285.276,191.058 285.145 C 190.803 284.987,190.761 285.050,190.934 285.330 C 191.244 285.830,191.496 285.936,187.083 283.729 C 183.873 282.123,183.510 282.012,183.037 282.484 C 182.553 282.969,181.850 282.927,181.054 282.368 C 180.726 282.137,177.634 281.054,177.303 281.054 C 177.207 281.054,177.732 281.685,178.470 282.455 " stroke="none" fill="#57566e" fill-rule="evenodd"></path><path id="path2" d="M205.272 61.936 C 206.027 62.530,208.893 63.705,209.094 63.503 C 209.142 63.456,208.116 62.938,206.814 62.353 C 205.212 61.632,204.714 61.498,205.272 61.936 M205.123 63.560 C 204.579 63.773,204.651 63.846,205.587 64.033 C 206.196 64.155,206.770 64.180,206.862 64.088 C 206.954 63.996,206.745 63.919,206.398 63.916 C 205.869 63.912,205.847 63.859,206.260 63.591 C 206.890 63.184,206.136 63.164,205.123 63.560 M213.984 64.612 C 213.861 64.810,213.341 64.911,212.828 64.836 C 212.316 64.761,211.971 64.821,212.063 64.969 C 212.155 65.117,212.435 65.239,212.685 65.239 C 212.936 65.239,213.246 65.409,213.374 65.616 C 213.539 65.884,213.329 65.930,212.652 65.775 C 212.127 65.655,212.829 66.126,214.213 66.823 C 215.597 67.520,217.302 68.530,218.002 69.069 C 220.235 70.786,223.507 72.751,225.206 73.395 C 226.112 73.739,227.965 74.719,229.325 75.573 C 231.511 76.947,231.647 76.996,230.506 75.997 C 229.797 75.377,229.056 74.372,228.859 73.765 C 228.640 73.089,228.245 72.613,227.842 72.537 C 227.479 72.470,227.067 72.214,226.926 71.968 C 226.730 71.628,226.487 71.605,225.902 71.872 C 225.247 72.170,224.739 71.992,222.426 70.647 C 220.172 69.338,215.893 65.898,216.518 65.898 C 216.618 65.898,217.577 66.209,218.647 66.589 C 221.677 67.666,222.713 67.873,222.517 67.361 C 222.425 67.123,222.138 67.010,221.878 67.109 C 221.618 67.209,221.000 67.130,220.505 66.933 C 220.010 66.736,219.160 66.406,218.616 66.200 C 217.710 65.856,217.682 65.803,218.287 65.555 C 218.928 65.292,218.927 65.285,218.245 65.262 C 217.859 65.249,217.011 65.016,216.361 64.745 C 214.956 64.158,214.287 64.120,213.984 64.612 M222.823 71.199 C 225.286 72.663,225.617 73.318,223.329 72.200 C 221.810 71.458,219.731 69.883,220.244 69.864 C 220.415 69.857,221.576 70.458,222.823 71.199 M236.290 72.137 C 236.950 72.500,237.914 73.213,238.432 73.722 C 240.192 75.451,243.319 77.693,246.103 79.221 C 249.097 80.864,254.022 84.373,256.229 86.436 C 256.982 87.139,258.247 88.181,259.040 88.750 C 261.257 90.342,263.885 92.774,265.733 94.944 C 267.455 96.967,269.717 99.962,270.361 101.071 C 270.703 101.660,271.099 102.142,271.241 102.142 C 271.383 102.142,271.499 102.420,271.499 102.760 C 271.499 103.101,271.716 103.559,271.981 103.779 C 272.245 103.998,272.561 104.498,272.683 104.890 C 272.804 105.281,273.163 105.972,273.480 106.425 C 273.797 106.878,274.644 108.361,275.361 109.720 C 277.295 113.386,278.033 114.630,278.701 115.346 C 279.031 115.701,279.507 116.397,279.759 116.892 C 280.010 117.387,280.578 118.386,281.021 119.110 C 281.464 119.835,282.209 121.183,282.676 122.106 C 283.511 123.755,286.115 128.008,288.221 131.164 C 288.810 132.046,289.292 132.920,289.292 133.106 C 289.292 133.291,289.430 133.443,289.599 133.443 C 289.768 133.443,290.010 133.777,290.137 134.185 C 290.364 134.912,293.358 138.893,293.837 139.102 C 294.319 139.314,296.595 142.680,297.740 144.876 C 299.090 147.466,300.843 153.959,301.793 159.885 C 302.148 162.105,302.656 165.255,302.920 166.886 C 303.185 168.517,303.493 171.557,303.604 173.641 C 303.716 175.725,303.878 178.245,303.965 179.242 C 304.076 180.517,304.031 180.859,303.814 180.395 C 303.039 178.738,303.511 181.185,304.500 183.949 C 305.237 186.010,305.630 186.732,305.849 186.427 C 306.071 186.118,306.103 186.166,305.963 186.598 C 305.855 186.929,306.154 188.338,306.625 189.728 C 307.423 192.081,308.311 201.320,307.739 201.318 C 307.646 201.318,307.386 202.088,307.163 203.030 C 306.263 206.820,303.875 210.731,300.378 214.142 C 299.371 215.124,298.639 216.088,298.750 216.283 C 298.861 216.479,298.831 216.529,298.683 216.395 C 298.314 216.061,297.484 216.795,297.748 217.222 C 297.865 217.410,297.811 217.472,297.628 217.360 C 297.446 217.247,297.015 217.383,296.671 217.663 C 296.327 217.942,296.254 218.063,296.509 217.931 C 296.806 217.777,296.891 217.822,296.745 218.057 C 296.621 218.258,296.339 218.355,296.118 218.272 C 295.897 218.189,295.272 218.500,294.728 218.964 C 293.770 219.780,293.768 219.789,294.651 219.252 C 295.480 218.748,295.544 218.747,295.358 219.234 C 295.244 219.528,295.041 219.769,294.906 219.769 C 294.771 219.769,293.994 220.770,293.180 221.993 C 288.278 229.362,280.734 236.552,271.829 242.342 C 269.926 243.580,267.776 244.992,267.051 245.482 C 265.836 246.301,265.009 246.767,260.627 249.094 C 259.107 249.901,252.375 253.121,250.068 254.144 C 243.058 257.252,226.110 261.853,221.253 261.967 C 220.709 261.980,219.967 262.128,219.605 262.297 C 217.983 263.051,235.873 261.713,241.680 260.645 C 258.809 257.496,273.802 250.590,286.876 239.828 C 291.236 236.239,301.689 224.799,302.646 222.569 C 302.833 222.134,303.340 221.400,303.774 220.938 C 304.208 220.477,304.437 220.099,304.283 220.099 C 304.130 220.099,304.300 219.765,304.662 219.357 C 305.405 218.520,307.414 215.376,307.414 215.050 C 307.414 214.933,307.858 214.114,308.402 213.230 C 308.946 212.347,309.390 211.451,309.390 211.239 C 309.390 211.028,309.923 209.784,310.574 208.475 C 311.225 207.166,311.828 205.725,311.913 205.272 C 311.999 204.819,312.342 203.829,312.677 203.073 C 313.011 202.317,313.199 201.612,313.095 201.508 C 312.990 201.403,313.046 201.318,313.219 201.318 C 313.392 201.318,313.569 200.857,313.612 200.293 C 313.655 199.729,313.823 199.020,313.985 198.716 C 314.284 198.158,315.454 193.219,315.789 191.104 C 317.624 179.505,317.452 167.279,315.316 157.496 C 312.428 144.266,308.856 135.203,301.874 123.396 C 290.576 104.289,269.714 86.348,246.787 76.022 C 240.028 72.978,233.261 70.473,236.290 72.137 M173.476 84.667 C 151.868 85.982,130.742 94.544,115.881 108.012 C 112.674 110.918,106.163 117.545,105.488 118.590 C 105.188 119.054,103.973 120.647,102.788 122.128 C 100.711 124.726,96.918 130.733,97.145 131.066 C 97.206 131.155,97.114 131.319,96.941 131.429 C 95.616 132.279,91.660 142.774,89.973 149.918 C 85.971 166.858,87.307 189.038,93.225 203.907 C 100.388 221.904,105.839 230.714,117.390 242.960 C 128.554 254.795,141.496 264.295,156.342 271.551 C 162.131 274.381,164.506 275.237,161.382 273.369 C 160.604 272.903,159.077 271.605,157.990 270.485 C 156.903 269.365,154.458 267.416,152.557 266.154 C 150.657 264.892,148.045 262.946,146.753 261.831 C 145.461 260.715,144.125 259.567,143.784 259.279 C 143.442 258.992,142.852 258.398,142.473 257.961 C 142.093 257.524,140.212 255.706,138.294 253.922 C 134.895 250.760,128.171 241.694,128.171 240.273 C 128.171 240.125,127.600 238.824,126.902 237.382 C 123.642 230.651,122.900 229.068,122.900 228.853 C 122.900 228.726,122.543 228.150,122.108 227.573 C 121.673 226.996,120.625 225.041,119.779 223.229 C 117.642 218.648,116.178 215.681,115.961 215.486 C 115.859 215.395,115.250 214.283,114.608 213.015 C 113.965 211.746,113.123 210.189,112.736 209.555 C 112.349 208.921,111.957 208.217,111.864 207.990 C 111.772 207.764,111.621 207.393,111.528 207.166 C 111.247 206.479,109.069 203.283,108.552 202.801 C 107.199 201.537,105.214 197.809,104.133 194.502 C 102.251 188.745,100.485 169.598,101.176 162.438 L 101.382 160.297 101.432 162.995 C 101.482 165.677,101.830 166.509,102.582 165.751 C 102.874 165.456,102.838 165.413,102.429 165.569 C 101.964 165.746,101.872 165.367,101.736 162.705 C 101.615 160.320,101.232 158.465,100.015 154.366 C 97.129 144.641,98.216 137.298,103.490 130.902 C 104.349 129.860,104.967 128.871,104.864 128.703 C 104.760 128.536,104.854 128.509,105.073 128.644 C 105.451 128.878,108.967 125.942,108.829 125.508 C 108.796 125.402,108.945 125.312,109.162 125.307 C 109.378 125.302,110.371 124.745,111.367 124.068 C 113.433 122.666,113.854 122.301,112.732 122.886 C 110.743 123.922,121.568 112.406,125.865 108.914 C 136.696 100.114,155.049 91.550,171.334 87.698 C 174.471 86.955,185.239 85.337,188.429 85.128 C 190.268 85.007,191.716 84.851,191.646 84.781 C 191.373 84.508,177.523 84.421,173.476 84.667 M155.931 109.618 C 156.248 109.700,156.767 109.700,157.084 109.618 C 157.401 109.535,157.142 109.467,156.507 109.467 C 155.873 109.467,155.614 109.535,155.931 109.618 M162.525 109.627 C 163.026 109.703,163.767 109.701,164.173 109.622 C 164.578 109.544,164.168 109.482,163.262 109.485 C 162.356 109.487,162.024 109.551,162.525 109.627 M166.643 109.953 C 167.053 110.032,167.646 110.029,167.961 109.946 C 168.276 109.864,167.941 109.799,167.216 109.803 C 166.491 109.807,166.233 109.874,166.643 109.953 M172.405 110.292 C 173.266 110.359,174.675 110.359,175.535 110.292 C 176.396 110.224,175.692 110.168,173.970 110.168 C 172.249 110.168,171.544 110.224,172.405 110.292 M193.996 110.621 C 194.771 110.690,195.957 110.689,196.631 110.618 C 197.306 110.548,196.672 110.491,195.222 110.492 C 193.773 110.493,193.221 110.551,193.996 110.621 M156.590 111.595 C 156.907 111.677,157.426 111.677,157.743 111.595 C 158.060 111.512,157.801 111.444,157.166 111.444 C 156.532 111.444,156.273 111.512,156.590 111.595 M161.031 111.605 C 161.615 111.678,162.653 111.679,163.337 111.608 C 164.021 111.537,163.542 111.477,162.273 111.475 C 161.005 111.474,160.446 111.532,161.031 111.605 M167.051 112.163 C 169.300 112.560,170.036 112.579,169.660 112.228 C 169.584 112.158,168.410 112.016,167.051 111.913 L 164.580 111.726 167.051 112.163 M206.425 112.026 C 206.787 112.182,207.306 112.310,207.578 112.310 C 207.890 112.310,207.829 112.205,207.414 112.026 C 207.051 111.871,206.532 111.743,206.260 111.743 C 205.949 111.743,206.010 111.848,206.425 112.026 M170.819 112.865 C 172.823 113.909,179.159 114.851,186.161 115.145 C 204.208 115.902,208.506 116.981,214.992 122.384 C 228.358 133.518,239.042 138.134,243.975 134.906 L 244.952 134.267 242.328 134.053 C 240.884 133.936,239.043 133.598,238.235 133.303 C 237.428 133.007,236.568 132.842,236.324 132.936 C 236.080 133.030,235.957 132.982,236.050 132.831 C 236.144 132.680,235.448 132.200,234.505 131.764 C 233.562 131.328,231.260 129.968,229.390 128.741 C 227.520 127.513,225.828 126.610,225.630 126.732 C 225.424 126.860,225.362 126.804,225.486 126.603 C 225.827 126.051,216.395 119.275,212.568 117.323 C 211.039 116.542,210.737 116.481,211.069 117.020 C 211.216 117.257,211.160 117.310,210.919 117.162 C 210.707 117.030,210.606 116.804,210.696 116.659 C 210.980 116.200,205.848 114.497,205.076 114.793 C 204.803 114.898,204.658 114.855,204.756 114.698 C 205.096 114.147,199.780 113.585,193.245 113.482 C 183.937 113.334,177.150 113.047,174.465 112.687 C 173.196 112.517,171.639 112.373,171.005 112.369 L 169.852 112.360 170.819 112.865 M147.010 113.448 C 146.145 114.369,146.088 114.994,146.870 114.987 C 147.354 114.982,147.369 114.933,146.961 114.675 C 146.551 114.416,146.599 114.236,147.265 113.526 C 147.700 113.064,147.981 112.685,147.891 112.685 C 147.800 112.685,147.404 113.029,147.010 113.448 M156.101 113.583 C 156.694 113.656,157.583 113.655,158.078 113.580 C 158.573 113.505,158.089 113.445,157.002 113.446 C 155.914 113.448,155.509 113.510,156.101 113.583 M216.804 115.746 C 216.804 115.832,217.731 116.451,218.863 117.121 C 219.996 117.790,220.700 118.123,220.428 117.860 C 219.839 117.290,216.804 115.520,216.804 115.746 M125.679 117.051 L 124.712 118.122 125.783 117.154 C 126.781 116.252,127.005 115.980,126.750 115.980 C 126.694 115.980,126.212 116.462,125.679 117.051 M119.852 118.805 C 118.620 119.473,118.695 119.751,119.934 119.110 C 120.478 118.829,120.923 118.529,120.923 118.443 C 120.923 118.231,120.887 118.243,119.852 118.805 M165.998 118.511 C 166.320 118.640,166.279 118.802,165.833 119.162 C 165.284 119.605,165.294 119.614,165.962 119.292 C 167.020 118.780,167.207 118.283,166.329 118.313 C 165.911 118.327,165.762 118.416,165.998 118.511 M221.252 118.505 C 222.094 119.303,224.162 120.652,223.663 120.077 C 223.358 119.727,222.617 119.159,222.016 118.816 C 221.414 118.474,221.071 118.333,221.252 118.505 M121.417 120.457 L 120.428 121.307 121.499 120.598 C 122.088 120.208,122.570 119.825,122.570 119.747 C 122.570 119.500,122.430 119.586,121.417 120.457 M147.282 119.879 C 147.282 120.091,147.047 120.264,146.760 120.264 C 146.168 120.264,146.287 121.005,146.899 121.124 C 147.136 121.171,147.154 121.132,146.943 121.029 C 146.726 120.924,146.819 120.687,147.181 120.422 C 147.508 120.183,147.664 119.877,147.528 119.741 C 147.393 119.606,147.282 119.668,147.282 119.879 M225.355 121.520 C 226.846 122.874,233.059 127.453,234.424 128.204 C 236.270 129.220,235.862 128.877,232.619 126.689 C 231.079 125.649,228.781 123.976,227.512 122.971 C 224.969 120.955,224.060 120.344,225.355 121.520 M145.162 121.216 C 144.942 121.573,147.191 123.654,148.564 124.364 C 150.180 125.199,150.207 124.940,148.600 124.024 C 146.974 123.099,145.634 121.960,145.634 121.505 C 145.634 121.344,145.805 121.319,146.015 121.448 C 146.250 121.594,146.306 121.539,146.160 121.303 C 145.880 120.849,145.414 120.809,145.162 121.216 M131.426 121.550 C 131.691 121.717,131.772 122.012,131.622 122.255 C 131.454 122.526,131.497 122.590,131.745 122.437 C 132.332 122.074,132.195 121.251,131.549 121.257 C 131.093 121.261,131.067 121.322,131.426 121.550 M153.295 124.124 C 153.793 124.199,154.609 124.199,155.107 124.124 C 155.605 124.048,155.198 123.987,154.201 123.987 C 153.204 123.987,152.797 124.048,153.295 124.124 M156.837 125.206 C 156.158 125.423,156.129 125.475,156.672 125.498 C 157.035 125.513,157.554 125.382,157.825 125.206 C 158.403 124.833,158.002 124.833,156.837 125.206 M129.902 128.007 C 129.906 128.731,129.973 128.989,130.052 128.579 C 130.131 128.169,130.128 127.576,130.045 127.261 C 129.963 126.946,129.898 127.282,129.902 128.007 M108.720 130.066 L 106.919 131.960 108.814 130.160 C 110.574 128.486,110.859 128.171,110.615 128.171 C 110.563 128.171,109.711 129.024,108.720 130.066 M236.732 129.479 C 236.917 129.779,240.864 131.239,241.033 131.070 C 241.100 131.004,240.125 130.563,238.868 130.092 C 237.610 129.621,236.649 129.345,236.732 129.479 M129.595 132.125 C 129.595 133.303,129.655 133.785,129.728 133.196 C 129.801 132.607,129.801 131.643,129.728 131.054 C 129.655 130.465,129.595 130.947,129.595 132.125 M102.593 143.987 C 102.593 145.890,102.648 146.668,102.714 145.717 C 102.781 144.765,102.781 143.208,102.714 142.257 C 102.648 141.306,102.593 142.084,102.593 143.987 M117.616 152.142 L 115.815 154.036 117.710 152.235 C 119.470 150.562,119.756 150.247,119.511 150.247 C 119.459 150.247,118.607 151.100,117.616 152.142 M120.584 152.801 L 118.451 155.025 120.675 152.893 C 121.899 151.720,122.900 150.719,122.900 150.668 C 122.900 150.426,122.564 150.735,120.584 152.801 M104.227 158.649 C 104.228 159.918,104.288 160.396,104.359 159.713 C 104.430 159.029,104.429 157.991,104.356 157.406 C 104.284 156.821,104.225 157.381,104.227 158.649 M105.189 163.794 C 104.066 164.513,103.703 164.996,104.695 164.451 C 105.451 164.035,106.636 163.120,106.425 163.113 C 106.334 163.111,105.778 163.417,105.189 163.794 M302.320 175.597 C 302.194 175.800,302.308 175.863,302.602 175.750 C 303.000 175.597,303.121 175.937,303.220 177.483 L 303.342 179.407 303.318 177.456 C 303.296 175.618,302.836 174.761,302.320 175.597 M300.298 179.978 C 299.825 180.533,299.808 180.607,300.231 180.281 C 300.742 179.885,300.801 180.028,300.909 181.934 L 301.026 184.020 301.090 181.631 C 301.161 178.953,301.165 178.962,300.298 179.978 M292.586 182.907 C 291.438 183.913,291.438 183.915,292.494 183.212 C 293.078 182.824,293.642 182.365,293.749 182.192 C 294.067 181.678,293.803 181.840,292.586 182.907 M296.376 183.060 L 295.387 183.909 296.458 183.201 C 297.047 182.811,297.529 182.428,297.529 182.350 C 297.529 182.103,297.389 182.189,296.376 183.060 M287.974 186.656 C 287.173 187.471,286.593 188.138,286.683 188.138 C 286.774 188.138,287.503 187.471,288.303 186.656 C 289.103 185.840,289.684 185.173,289.594 185.173 C 289.503 185.173,288.774 185.840,287.974 186.656 M284.990 189.703 L 283.855 190.939 285.091 189.804 C 286.241 188.747,286.478 188.468,286.226 188.468 C 286.171 188.468,285.615 189.024,284.990 189.703 M285.744 192.998 C 284.891 194.230,284.613 194.728,284.780 194.728 C 284.857 194.728,285.313 194.135,285.793 193.410 C 286.768 191.937,286.725 191.581,285.744 192.998 M303.543 196.870 C 303.546 197.595,303.614 197.852,303.693 197.443 C 303.771 197.033,303.768 196.440,303.686 196.125 C 303.604 195.810,303.539 196.145,303.543 196.870 M277.506 206.260 C 277.506 206.895,277.574 207.154,277.657 206.837 C 277.740 206.520,277.740 206.001,277.657 205.684 C 277.574 205.367,277.506 205.626,277.506 206.260 M280.808 207.084 C 280.812 207.809,280.879 208.067,280.958 207.657 C 281.037 207.247,281.034 206.654,280.951 206.339 C 280.869 206.024,280.804 206.359,280.808 207.084 M277.541 212.521 C 277.541 213.880,277.599 214.436,277.670 213.756 C 277.741 213.077,277.741 211.965,277.670 211.285 C 277.599 210.605,277.541 211.161,277.541 212.521 M294.563 215.321 C 293.763 216.137,293.182 216.804,293.273 216.804 C 293.364 216.804,294.093 216.137,294.893 215.321 C 295.693 214.506,296.274 213.839,296.183 213.839 C 296.093 213.839,295.364 214.506,294.563 215.321 M165.155 215.211 C 164.348 215.392,163.301 215.961,162.684 216.555 C 162.096 217.121,161.878 217.387,162.201 217.146 C 164.484 215.438,173.541 218.052,180.441 222.409 C 181.729 223.223,182.729 223.642,183.098 223.523 C 183.534 223.382,183.575 223.414,183.253 223.645 C 182.792 223.975,184.966 225.538,185.461 225.231 C 185.592 225.151,185.914 225.237,186.177 225.423 C 186.567 225.700,186.549 225.728,186.079 225.577 C 185.033 225.240,185.473 225.614,187.891 227.115 C 191.766 229.520,194.722 231.014,195.119 230.769 C 195.322 230.644,195.401 230.683,195.293 230.858 C 194.774 231.698,202.027 233.679,207.211 234.112 C 210.222 234.364,221.493 233.998,221.282 233.655 C 221.111 233.378,234.204 233.386,242.998 233.669 L 249.918 233.892 243.861 233.589 C 240.432 233.418,237.616 233.131,237.371 232.927 C 237.132 232.729,236.448 232.509,235.849 232.437 C 235.251 232.365,233.575 232.167,232.125 231.996 C 230.672 231.825,224.612 231.763,218.616 231.859 C 205.776 232.064,203.412 231.799,198.537 229.610 C 196.895 228.873,195.502 228.137,195.442 227.974 C 195.382 227.811,195.183 227.677,195.002 227.677 C 194.820 227.677,194.054 227.251,193.299 226.731 C 191.534 225.513,185.105 221.352,181.713 219.233 C 175.786 215.529,170.006 214.125,165.155 215.211 M252.471 219.338 C 252.788 219.420,253.307 219.420,253.624 219.338 C 253.942 219.255,253.682 219.187,253.048 219.187 C 252.414 219.187,252.154 219.255,252.471 219.338 M254.946 219.343 C 255.356 219.422,255.949 219.419,256.264 219.337 C 256.579 219.254,256.244 219.190,255.519 219.193 C 254.794 219.197,254.536 219.265,254.946 219.343 M168.040 220.264 C 168.674 220.508,169.415 220.708,169.687 220.708 C 169.959 220.708,169.662 220.508,169.028 220.264 C 168.394 220.019,167.652 219.819,167.381 219.819 C 167.109 219.819,167.405 220.019,168.040 220.264 M286.152 222.266 L 284.514 223.774 286.244 222.379 C 287.796 221.128,288.169 220.758,287.882 220.758 C 287.832 220.758,287.054 221.436,286.152 222.266 M171.664 221.582 C 172.117 221.841,172.636 222.052,172.817 222.052 C 172.998 222.052,172.776 221.841,172.323 221.582 C 171.870 221.323,171.351 221.111,171.170 221.111 C 170.988 221.111,171.211 221.323,171.664 221.582 M261.533 221.768 C 262.414 222.773,262.509 223.322,261.697 222.711 C 261.148 222.298,261.148 222.307,261.695 222.903 C 262.083 223.327,262.377 223.422,262.603 223.196 C 262.828 222.971,262.589 222.548,261.865 221.892 C 261.008 221.117,260.942 221.092,261.533 221.768 M173.311 222.224 C 173.311 222.314,173.756 222.618,174.300 222.900 C 174.843 223.181,175.288 223.337,175.288 223.246 C 175.288 223.155,174.843 222.851,174.300 222.570 C 173.756 222.289,173.311 222.133,173.311 222.224 M255.605 222.309 C 256.015 222.388,256.608 222.385,256.923 222.302 C 257.238 222.220,256.903 222.155,256.178 222.159 C 255.453 222.163,255.195 222.230,255.605 222.309 M244.152 224.547 C 243.351 225.362,242.771 226.030,242.861 226.030 C 242.952 226.030,243.681 225.362,244.481 224.547 C 245.281 223.731,245.862 223.064,245.771 223.064 C 245.681 223.064,244.952 223.731,244.152 224.547 M245.289 224.794 L 243.987 226.194 245.387 224.892 C 246.689 223.681,246.939 223.394,246.690 223.394 C 246.636 223.394,246.006 224.024,245.289 224.794 M247.446 225.206 C 246.646 226.021,246.065 226.689,246.156 226.689 C 246.247 226.689,246.976 226.021,247.776 225.206 C 248.576 224.390,249.157 223.723,249.066 223.723 C 248.976 223.723,248.247 224.390,247.446 225.206 M260.453 224.407 C 260.334 224.783,260.324 225.179,260.431 225.286 C 260.538 225.393,260.626 225.241,260.626 224.948 C 260.626 224.655,260.886 224.264,261.203 224.079 C 261.729 223.773,261.731 223.742,261.225 223.733 C 260.920 223.728,260.573 224.031,260.453 224.407 M241.763 226.488 C 241.446 226.729,241.186 227.021,241.186 227.137 C 241.186 227.476,242.446 227.379,242.667 227.022 C 242.787 226.826,242.631 226.785,242.274 226.919 C 241.752 227.114,241.735 227.074,242.133 226.586 C 242.671 225.923,242.549 225.891,241.763 226.488 M258.139 228.418 L 256.837 229.819 258.237 228.516 C 259.540 227.305,259.789 227.018,259.540 227.018 C 259.486 227.018,258.856 227.648,258.139 228.418 M243.163 229.489 C 243.163 229.761,243.423 229.972,243.740 229.958 C 244.088 229.942,244.152 229.865,243.902 229.765 C 243.675 229.673,243.572 229.462,243.675 229.296 C 243.777 229.131,243.704 228.995,243.512 228.995 C 243.320 228.995,243.163 229.217,243.163 229.489 M249.674 230.217 C 250.084 230.295,250.677 230.292,250.992 230.210 C 251.307 230.127,250.972 230.063,250.247 230.067 C 249.522 230.070,249.264 230.138,249.674 230.217 M258.896 230.831 C 257.664 231.499,257.739 231.778,258.979 231.137 C 259.522 230.856,259.967 230.555,259.967 230.469 C 259.967 230.257,259.932 230.269,258.896 230.831 M249.835 231.537 C 250.334 231.613,251.149 231.613,251.647 231.537 C 252.146 231.462,251.738 231.400,250.741 231.400 C 249.745 231.400,249.337 231.462,249.835 231.537 M259.143 232.496 C 258.551 233.000,258.430 233.200,258.841 232.996 C 259.445 232.696,260.578 231.612,260.255 231.643 C 260.187 231.649,259.687 232.033,259.143 232.496 M196.540 235.255 C 196.903 235.411,197.496 235.534,197.858 235.529 C 198.388 235.521,198.356 235.467,197.694 235.255 C 196.567 234.895,195.701 234.895,196.540 235.255 M239.310 235.831 C 241.450 235.889,244.860 235.888,246.888 235.831 C 248.917 235.773,247.166 235.726,242.998 235.726 C 238.830 235.726,237.171 235.774,239.310 235.831 M228.748 236.150 C 229.246 236.226,230.062 236.226,230.560 236.150 C 231.058 236.075,230.651 236.013,229.654 236.013 C 228.657 236.013,228.250 236.075,228.748 236.150 M223.806 236.480 C 224.304 236.555,225.119 236.555,225.618 236.480 C 226.116 236.404,225.708 236.343,224.712 236.343 C 223.715 236.343,223.307 236.404,223.806 236.480 M204.036 236.800 C 204.353 236.883,204.872 236.883,205.189 236.800 C 205.507 236.718,205.247 236.650,204.613 236.650 C 203.979 236.650,203.719 236.718,204.036 236.800 M219.034 236.812 C 219.626 236.885,220.516 236.884,221.011 236.809 C 221.506 236.734,221.021 236.674,219.934 236.675 C 218.847 236.677,218.442 236.739,219.034 236.812 M208.320 237.146 C 209.362 237.212,211.067 237.212,212.109 237.146 C 213.151 237.081,212.298 237.027,210.214 237.027 C 208.130 237.027,207.278 237.081,208.320 237.146 M167.299 269.989 C 168.250 270.854,168.942 271.702,168.835 271.874 C 168.570 272.303,169.596 273.806,170.154 273.806 C 170.402 273.806,170.693 274.036,170.802 274.318 C 170.947 274.697,171.147 274.747,171.568 274.512 C 172.545 273.965,176.200 276.295,179.399 279.502 C 181.063 281.170,181.057 281.182,178.913 280.471 C 178.622 280.374,178.689 280.530,179.077 280.850 C 179.717 281.378,179.707 281.389,178.748 281.219 C 177.969 281.081,178.039 281.150,179.077 281.544 C 179.802 281.819,180.766 282.222,181.219 282.440 C 181.672 282.657,182.142 282.881,182.263 282.936 C 182.385 282.992,182.712 282.809,182.991 282.530 C 183.443 282.079,183.627 282.076,184.665 282.510 C 186.199 283.151,186.158 282.890,184.596 282.065 C 183.816 281.653,183.581 281.408,183.959 281.398 C 184.288 281.390,184.844 281.537,185.195 281.725 C 185.545 281.913,185.832 281.989,185.832 281.894 C 185.832 281.799,184.831 281.217,183.608 280.599 C 182.385 279.982,180.717 278.900,179.901 278.194 C 177.464 276.085,173.904 273.604,172.323 272.912 C 171.507 272.555,169.860 271.519,168.661 270.610 C 165.640 268.319,165.279 268.154,167.299 269.989 M173.901 274.120 C 175.323 274.870,178.228 277.363,176.958 276.744 C 176.214 276.382,173.218 274.366,172.504 273.747 C 171.956 273.273,172.638 273.455,173.901 274.120 M174.629 279.015 C 174.629 279.186,174.880 279.530,175.187 279.778 C 175.662 280.164,175.703 280.162,175.465 279.767 C 175.180 279.294,175.402 279.310,177.100 279.885 C 177.511 280.024,177.449 279.929,176.936 279.634 C 175.755 278.954,174.629 278.652,174.629 279.015 M190.774 284.020 C 190.410 284.255,190.627 284.339,191.598 284.339 C 192.569 284.339,192.786 284.255,192.422 284.020 C 192.150 283.844,191.779 283.700,191.598 283.700 C 191.417 283.700,191.046 283.844,190.774 284.020 M189.786 285.038 C 193.485 287.279,193.869 287.396,191.277 285.493 C 190.556 284.964,189.667 284.489,189.300 284.436 C 188.859 284.372,189.025 284.577,189.786 285.038 " stroke="none" fill="#4c455e" fill-rule="evenodd"></path><path id="path3" d="M206.483 63.409 C 205.940 63.820,206.067 63.900,207.801 64.241 C 208.857 64.448,210.435 64.915,211.309 65.277 C 213.409 66.149,214.019 65.902,212.166 64.930 C 211.056 64.348,207.313 62.876,207.115 62.943 C 207.098 62.949,206.814 63.158,206.483 63.409 M217.957 65.800 C 218.477 66.303,221.374 67.287,221.829 67.115 C 222.055 67.030,221.677 66.716,220.987 66.417 C 219.436 65.745,217.491 65.349,217.957 65.800 M220.923 70.691 C 222.092 71.657,224.672 72.966,224.919 72.720 C 225.113 72.525,220.727 69.845,220.244 69.864 C 220.074 69.870,220.379 70.243,220.923 70.691 M155.976 109.720 C 153.510 110.081,150.966 110.993,149.094 112.185 C 145.942 114.194,145.748 115.393,148.841 113.752 C 153.542 111.258,159.866 110.848,171.170 112.305 C 175.701 112.889,179.277 113.103,186.326 113.213 C 206.341 113.526,209.944 114.578,222.241 123.706 C 232.813 131.555,238.315 134.267,243.196 134.037 C 246.615 133.876,246.556 132.422,243.100 131.646 C 237.427 130.374,234.704 128.859,226.138 122.206 C 213.223 112.176,208.446 110.873,182.702 110.360 C 174.003 110.186,165.552 109.908,163.921 109.741 C 160.443 109.385,158.299 109.379,155.976 109.720 M153.048 114.343 C 150.740 115.232,149.117 116.683,148.096 118.770 C 147.615 119.754,147.050 120.619,146.840 120.694 C 146.630 120.768,147.457 121.141,148.678 121.523 C 154.400 123.311,157.999 122.546,161.614 118.774 C 162.339 118.017,163.423 117.063,164.022 116.653 C 165.286 115.789,165.238 115.479,163.918 115.981 C 163.138 116.278,162.902 116.224,162.342 115.623 C 160.540 113.689,156.271 113.101,153.048 114.343 M126.524 115.184 C 125.890 115.635,123.740 116.907,121.746 118.012 C 107.952 125.656,103.820 129.049,100.690 135.306 C 97.848 140.987,97.656 146.416,100.015 154.366 C 101.232 158.465,101.615 160.320,101.736 162.705 C 101.863 165.193,101.982 165.739,102.365 165.591 C 104.184 164.893,117.707 155.465,119.916 153.354 C 126.095 147.451,128.934 141.265,129.507 132.455 C 129.850 127.194,130.244 125.026,131.204 123.115 C 131.962 121.609,131.754 121.171,130.807 122.276 C 128.812 124.603,127.605 127.997,126.206 135.217 C 124.047 146.357,119.735 152.301,109.226 158.626 C 107.776 159.499,106.050 160.639,105.389 161.161 C 104.729 161.682,104.136 162.109,104.071 162.109 C 104.007 162.109,104.003 160.812,104.064 159.226 C 104.141 157.204,103.919 154.843,103.322 151.321 C 101.012 137.687,103.627 132.609,118.058 122.712 C 122.655 119.559,128.171 115.137,128.171 114.604 C 128.171 114.165,127.750 114.314,126.524 115.184 M161.203 115.703 C 162.766 116.487,162.752 116.550,160.690 118.044 C 159.228 119.104,158.926 119.212,158.617 118.790 C 158.194 118.215,157.825 118.467,157.825 119.330 C 157.825 119.662,157.714 119.936,157.578 119.939 C 157.442 119.941,156.998 120.033,156.590 120.142 C 156.053 120.286,155.848 120.199,155.848 119.827 C 155.848 119.545,155.694 119.218,155.505 119.101 C 154.967 118.769,154.251 119.558,154.438 120.276 C 154.580 120.816,154.439 120.923,153.580 120.923 C 152.665 120.923,152.554 120.818,152.554 119.958 C 152.554 118.728,153.888 117.628,155.379 117.628 C 156.631 117.628,157.151 117.128,156.166 116.870 C 154.335 116.391,151.664 118.067,151.275 119.939 C 151.046 121.043,150.987 121.083,149.736 120.972 C 148.101 120.828,148.059 120.780,148.626 119.720 C 150.828 115.605,157.047 113.619,161.203 115.703 M163.197 120.315 C 157.430 124.686,153.332 125.257,147.858 122.452 C 145.445 121.216,145.016 121.329,146.705 122.758 C 151.500 126.813,158.680 126.219,163.097 121.402 C 163.550 120.908,164.499 120.079,165.206 119.560 C 165.952 119.012,166.270 118.616,165.965 118.616 C 165.675 118.616,164.430 119.381,163.197 120.315 M298.305 178.813 C 290.194 184.931,289.441 185.541,286.876 188.067 C 280.672 194.180,277.664 201.174,277.706 209.390 C 277.732 214.686,277.314 218.369,276.467 220.283 C 275.613 222.214,276.198 222.154,277.449 220.181 C 278.794 218.060,279.900 214.348,280.370 210.379 C 282.002 196.598,285.074 191.108,295.222 183.843 C 296.582 182.870,298.472 181.419,299.423 180.618 L 301.153 179.162 301.161 181.756 C 301.166 183.300,301.502 185.815,301.990 187.974 C 303.677 195.427,303.870 196.776,303.714 200.000 C 303.390 206.675,299.915 211.465,289.127 220.100 C 286.590 222.131,283.587 224.699,282.455 225.808 C 280.163 228.050,279.628 229.317,281.631 227.760 C 282.311 227.232,285.980 224.748,289.786 222.240 C 303.901 212.938,308.075 206.897,307.649 196.389 C 307.471 192.006,307.354 191.528,304.784 184.679 C 303.761 181.951,303.375 180.382,303.228 178.336 C 302.989 175.013,303.396 174.973,298.305 178.813 M163.368 216.730 C 161.274 216.999,161.298 219.110,163.396 219.110 C 167.449 219.110,172.479 221.303,180.598 226.610 C 195.762 236.521,201.937 237.945,223.064 236.399 C 226.779 236.127,234.489 235.824,240.198 235.724 C 253.761 235.489,256.541 234.895,260.600 231.370 C 262.506 229.715,262.185 228.875,260.192 230.301 C 255.790 233.450,251.183 234.181,239.167 233.637 C 231.097 233.272,228.972 233.292,220.448 233.811 C 202.565 234.899,198.742 233.972,184.843 225.175 C 174.453 218.599,168.141 216.116,163.368 216.730 M252.320 219.500 C 251.285 219.633,249.829 220.053,249.083 220.434 C 247.831 221.073,241.569 227.018,242.148 227.018 C 242.519 227.018,244.866 225.261,245.600 224.434 C 249.206 220.370,257.696 219.527,261.862 222.819 C 262.595 223.399,262.310 222.554,261.532 221.841 C 259.506 219.984,255.822 219.048,252.320 219.500 M252.718 222.541 C 250.093 223.111,249.242 223.674,246.187 226.858 C 243.652 229.502,243.523 229.700,244.480 229.490 C 245.208 229.330,245.681 229.414,246.080 229.775 C 249.944 233.272,258.877 230.315,260.288 225.071 C 260.529 224.179,260.842 223.715,261.215 223.700 C 262.209 223.659,259.315 222.757,257.551 222.558 C 256.614 222.452,255.552 222.316,255.189 222.256 C 254.827 222.196,253.715 222.324,252.718 222.541 M259.568 224.089 C 259.623 224.381,259.173 225.270,258.567 226.064 C 255.787 229.709,250.936 231.133,246.959 229.471 L 245.713 228.950 246.827 227.792 C 248.282 226.280,249.098 225.833,249.428 226.367 C 249.757 226.899,250.509 226.428,250.281 225.834 C 250.174 225.556,250.475 225.184,251.046 224.889 C 251.928 224.433,251.999 224.446,252.165 225.080 C 252.412 226.025,253.569 225.763,253.464 224.786 C 253.383 224.030,254.616 223.432,255.335 223.876 C 256.617 224.669,254.490 227.348,252.579 227.348 C 251.931 227.348,251.400 227.496,251.400 227.677 C 251.400 228.173,253.611 228.073,254.663 227.529 C 255.869 226.905,256.672 225.645,256.672 224.375 C 256.672 223.195,259.348 222.931,259.568 224.089 M172.504 273.747 C 173.218 274.366,176.214 276.382,176.958 276.744 C 178.228 277.363,175.323 274.870,173.901 274.120 C 172.638 273.455,171.956 273.273,172.504 273.747 M175.124 279.408 C 175.543 280.086,179.572 281.742,179.572 281.237 C 179.572 281.012,178.625 280.532,176.633 279.747 C 175.688 279.374,175.009 279.222,175.124 279.408 M185.405 282.552 C 188.729 284.437,189.500 284.690,190.415 284.201 C 191.170 283.796,191.131 283.763,189.423 283.360 C 188.445 283.130,186.945 282.591,186.090 282.162 C 183.666 280.948,183.121 281.258,185.405 282.552 " stroke="none" fill="#27232a" fill-rule="evenodd"></path><path id="path4" d="M174.794 49.932 C 173.526 50.184,171.598 50.545,170.511 50.734 C 161.714 52.260,158.983 53.658,157.800 57.242 C 156.362 61.601,159.753 67.835,164.865 70.232 L 167.216 71.334 175.700 71.400 L 184.185 71.466 184.185 70.754 C 184.185 70.362,183.822 69.739,183.380 69.370 C 182.136 68.333,177.662 51.616,178.423 50.854 C 179.705 49.572,178.342 49.226,174.794 49.932 M184.185 49.661 C 181.721 50.103,183.060 51.237,190.520 55.024 C 193.732 56.655,196.475 57.987,196.615 57.982 C 197.018 57.970,193.958 56.298,189.127 53.890 C 183.025 50.849,182.535 50.293,185.524 49.797 C 186.809 49.584,186.989 49.502,186.161 49.507 C 185.527 49.510,184.638 49.580,184.185 49.661 M190.857 49.663 C 191.536 49.735,192.648 49.735,193.328 49.663 C 194.007 49.592,193.451 49.534,192.092 49.534 C 190.733 49.534,190.177 49.592,190.857 49.663 M195.140 49.980 C 195.457 50.063,195.976 50.063,196.293 49.980 C 196.610 49.897,196.351 49.829,195.717 49.829 C 195.082 49.829,194.823 49.897,195.140 49.980 M199.671 50.741 C 200.797 51.102,201.663 51.102,200.824 50.741 C 200.461 50.586,199.868 50.463,199.506 50.468 C 198.976 50.476,199.008 50.529,199.671 50.741 M204.582 52.247 C 205.561 52.692,206.418 53.000,206.486 52.932 C 206.629 52.789,203.471 51.391,203.069 51.419 C 202.921 51.430,203.602 51.802,204.582 52.247 M173.409 57.249 C 175.070 62.714,175.895 65.731,175.765 65.861 C 175.693 65.933,173.843 66.065,171.653 66.155 L 167.672 66.319 165.930 64.521 C 161.429 59.874,162.432 56.420,168.699 54.988 C 172.664 54.082,172.410 53.960,173.409 57.249 M212.201 57.524 C 213.736 59.170,215.968 61.561,217.161 62.837 C 218.354 64.113,219.649 65.328,220.039 65.536 C 220.429 65.745,219.521 64.688,218.022 63.188 C 216.523 61.689,213.973 59.127,212.354 57.496 L 209.411 54.530 212.201 57.524 M146.129 58.619 C 140.068 60.370,134.752 65.427,134.770 69.424 C 134.779 71.436,134.695 71.241,138.725 78.574 C 139.761 80.458,140.142 81.505,140.076 82.280 C 139.951 83.726,140.222 83.668,143.518 81.541 C 146.449 79.651,146.944 78.805,145.343 78.427 C 144.726 78.282,143.996 77.150,141.892 73.077 L 139.224 67.911 140.218 66.492 C 142.003 63.946,146.500 62.181,147.732 63.543 C 148.935 64.872,152.586 73.272,152.407 74.300 C 152.066 76.259,152.501 76.335,156.147 74.954 C 159.718 73.602,160.293 72.935,158.615 72.094 C 157.947 71.759,157.362 70.715,155.977 67.381 C 152.108 58.072,151.105 57.180,146.129 58.619 M197.721 58.447 C 198.056 58.756,204.613 61.933,204.613 61.785 C 204.613 61.603,198.168 58.320,197.809 58.320 C 197.685 58.320,197.646 58.377,197.721 58.447 M194.481 63.168 C 194.979 63.244,195.795 63.244,196.293 63.168 C 196.792 63.093,196.384 63.031,195.387 63.031 C 194.390 63.031,193.983 63.093,194.481 63.168 M199.435 63.176 C 200.484 63.242,202.115 63.241,203.060 63.175 C 204.005 63.109,203.147 63.055,201.153 63.056 C 199.160 63.056,198.387 63.111,199.435 63.176 M187.891 67.919 C 187.393 68.850,186.558 70.115,186.035 70.731 C 184.934 72.030,185.129 72.624,186.296 71.527 C 186.731 71.118,187.658 70.568,188.354 70.305 C 189.062 70.037,189.257 69.885,188.797 69.961 C 188.344 70.035,187.686 70.216,187.334 70.363 C 186.806 70.583,186.905 70.247,187.905 68.428 C 188.570 67.218,189.043 66.227,188.956 66.227 C 188.869 66.227,188.389 66.989,187.891 67.919 M222.539 67.133 C 222.884 67.541,223.477 67.858,223.857 67.837 C 224.521 67.800,224.522 67.792,223.888 67.638 C 223.526 67.550,222.932 67.233,222.570 66.935 C 221.916 66.397,221.916 66.398,222.539 67.133 M228.830 69.193 C 229.193 69.348,229.712 69.476,229.984 69.476 C 230.295 69.476,230.234 69.371,229.819 69.193 C 229.456 69.037,228.937 68.910,228.666 68.910 C 228.354 68.910,228.415 69.014,228.830 69.193 M192.422 70.252 C 192.678 70.506,195.717 71.478,195.717 71.306 C 195.717 71.222,195.339 71.010,194.878 70.835 C 193.776 70.415,192.213 70.045,192.422 70.252 M233.608 70.675 C 235.112 71.255,235.704 71.246,234.432 70.664 C 233.888 70.415,233.221 70.216,232.949 70.221 C 232.677 70.227,232.974 70.431,233.608 70.675 M126.064 73.503 C 123.678 76.040,122.704 77.911,124.181 77.120 C 124.723 76.830,125.038 77.136,126.629 79.493 C 128.749 82.636,128.753 82.588,126.465 81.923 C 124.074 81.228,119.437 80.855,119.141 81.334 C 119.017 81.535,118.921 84.181,118.928 87.213 L 118.940 92.725 116.953 90.761 C 115.401 89.228,115.004 88.639,115.144 88.076 C 115.537 86.496,114.617 87.110,112.793 89.646 C 109.517 94.199,109.116 94.946,110.366 94.165 C 111.113 93.699,111.440 93.905,115.913 97.650 C 117.688 99.136,118.583 100.104,118.466 100.411 C 117.817 102.100,119.697 101.289,122.548 98.649 C 124.398 96.937,125.288 95.197,124.077 95.662 C 123.207 95.995,122.941 95.059,122.707 90.847 L 122.474 86.656 123.263 86.664 C 124.972 86.682,130.308 88.766,130.415 89.456 C 130.707 91.353,130.803 91.323,134.612 88.156 C 136.041 86.969,137.326 85.997,137.468 85.997 C 137.610 85.997,137.727 85.626,137.727 85.173 C 137.727 84.565,137.551 84.349,137.058 84.349 C 136.041 84.349,128.690 72.910,129.194 72.114 C 129.351 71.866,129.481 71.479,129.484 71.252 C 129.496 70.293,128.415 71.004,126.064 73.503 M198.682 72.965 C 198.682 73.056,199.127 73.360,199.671 73.641 C 200.214 73.922,200.659 74.078,200.659 73.987 C 200.659 73.897,200.214 73.593,199.671 73.311 C 199.127 73.030,198.682 72.874,198.682 72.965 M222.817 73.712 C 223.315 73.788,224.131 73.788,224.629 73.712 C 225.128 73.637,224.720 73.575,223.723 73.575 C 222.727 73.575,222.319 73.637,222.817 73.712 M218.447 76.141 C 216.913 77.788,215.939 78.554,215.138 78.743 L 214.003 79.010 214.991 79.044 C 215.807 79.072,216.353 78.679,218.127 76.789 C 219.309 75.530,220.643 74.353,221.093 74.174 C 221.773 73.902,221.802 73.844,221.266 73.826 C 220.875 73.814,219.766 74.724,218.447 76.141 M227.944 75.213 C 228.362 75.717,231.631 77.826,231.631 77.592 C 231.631 77.514,230.714 76.842,229.593 76.097 C 228.472 75.353,227.730 74.955,227.944 75.213 M203.295 75.203 C 203.557 75.460,209.530 78.091,209.803 78.070 C 210.129 78.045,205.011 75.615,203.954 75.293 C 203.501 75.155,203.204 75.114,203.295 75.203 M247.776 76.277 C 248.229 76.536,248.748 76.748,248.929 76.748 C 249.110 76.748,248.888 76.536,248.435 76.277 C 247.982 76.018,247.463 75.806,247.282 75.806 C 247.100 75.806,247.323 76.018,247.776 76.277 M233.443 79.247 C 247.098 92.228,251.795 99.549,256.798 115.651 C 259.332 123.808,261.197 136.038,261.355 145.538 L 261.425 149.753 261.538 146.129 C 261.852 136.128,259.661 122.174,256.184 112.026 C 254.330 106.616,253.267 104.213,250.203 98.517 C 247.406 93.318,240.796 85.414,235.284 80.678 C 233.365 79.030,232.537 78.386,233.443 79.247 M252.718 78.570 C 252.718 78.660,253.311 79.037,254.036 79.407 C 254.761 79.777,255.354 80.005,255.354 79.915 C 255.354 79.824,254.761 79.447,254.036 79.077 C 253.311 78.708,252.718 78.479,252.718 78.570 M178.978 84.265 C 180.555 84.325,183.224 84.325,184.909 84.265 C 186.595 84.206,185.305 84.156,182.043 84.156 C 178.781 84.156,177.402 84.205,178.978 84.265 M170.758 84.576 C 171.075 84.659,171.594 84.659,171.911 84.576 C 172.228 84.494,171.969 84.426,171.334 84.426 C 170.700 84.426,170.441 84.494,170.758 84.576 M192.175 84.576 C 192.492 84.659,193.011 84.659,193.328 84.576 C 193.645 84.494,193.386 84.426,192.751 84.426 C 192.117 84.426,191.857 84.494,192.175 84.576 M263.097 84.585 C 263.617 85.110,268.534 88.342,268.534 88.158 C 268.534 88.068,267.459 87.274,266.145 86.395 C 263.427 84.575,262.602 84.085,263.097 84.585 M207.935 87.770 C 208.011 87.839,209.407 88.461,211.038 89.151 C 212.669 89.842,214.088 90.531,214.192 90.681 C 214.296 90.831,214.724 91.021,215.143 91.101 C 215.563 91.182,216.145 91.460,216.437 91.720 C 216.730 91.979,217.525 92.421,218.204 92.702 C 218.884 92.982,219.440 93.376,219.440 93.578 C 219.440 93.779,219.588 93.852,219.769 93.740 C 219.951 93.628,220.099 93.693,220.099 93.885 C 220.099 94.077,220.287 94.234,220.517 94.234 C 220.746 94.234,221.525 94.614,222.246 95.079 L 223.558 95.924 222.570 95.071 C 222.026 94.602,221.211 94.018,220.758 93.774 C 220.305 93.530,218.600 92.570,216.969 91.642 C 213.829 89.855,207.026 86.939,207.935 87.770 M138.056 93.081 C 137.603 93.340,137.381 93.552,137.562 93.552 C 137.743 93.552,138.262 93.340,138.715 93.081 C 139.168 92.822,139.390 92.610,139.209 92.610 C 139.028 92.610,138.509 92.822,138.056 93.081 M131.713 96.070 C 130.482 96.738,130.557 97.016,131.796 96.376 C 132.339 96.094,132.784 95.794,132.784 95.708 C 132.784 95.496,132.749 95.508,131.713 96.070 M225.728 97.733 C 226.166 98.298,226.590 98.701,226.671 98.629 C 226.752 98.556,226.394 98.094,225.876 97.601 L 224.933 96.705 225.728 97.733 M105.785 99.753 C 103.566 103.148,103.029 104.127,103.260 104.358 C 103.376 104.474,103.646 104.393,103.861 104.179 C 104.279 103.761,105.396 103.668,106.216 103.982 C 106.623 104.139,106.498 104.470,105.562 105.712 C 102.251 110.109,101.304 112.003,102.155 112.529 C 103.851 113.577,107.276 112.087,110.214 109.023 C 110.939 108.268,112.496 106.878,113.674 105.935 C 116.898 103.355,117.129 102.977,115.399 103.118 C 114.989 103.151,114.099 102.750,113.422 102.226 C 112.745 101.703,111.190 100.697,109.967 99.992 C 108.526 99.161,107.743 98.502,107.743 98.119 C 107.743 97.083,107.275 97.473,105.785 99.753 M127.342 98.728 C 125.660 99.843,125.068 100.431,126.381 99.682 C 127.537 99.023,129.079 97.877,128.824 97.866 C 128.731 97.862,128.063 98.250,127.342 98.728 M285.663 102.554 C 288.107 105.045,290.145 107.084,290.193 107.084 C 290.429 107.084,289.958 106.594,285.750 102.467 L 281.219 98.023 285.663 102.554 M227.690 99.385 C 227.683 99.591,228.048 100.002,228.501 100.299 C 228.954 100.596,229.327 101.021,229.330 101.243 C 229.333 101.466,229.726 102.018,230.203 102.471 C 234.355 106.412,240.799 118.841,243.699 128.501 C 243.999 129.498,244.300 130.155,244.369 129.962 C 244.801 128.759,239.716 116.313,236.529 110.774 C 233.667 105.800,227.731 98.152,227.690 99.385 M117.792 105.723 C 116.343 106.967,114.712 108.485,114.168 109.096 C 113.624 109.707,114.143 109.318,115.321 108.231 C 116.499 107.143,118.204 105.631,119.110 104.868 C 120.016 104.106,120.684 103.477,120.593 103.471 C 120.502 103.465,119.242 104.478,117.792 105.723 M108.613 107.564 C 105.590 110.634,103.731 110.844,106.429 107.811 C 107.187 106.958,108.098 105.934,108.454 105.535 C 108.991 104.932,109.229 104.868,109.868 105.159 C 110.622 105.503,110.599 105.547,108.613 107.564 M290.939 108.176 C 290.939 108.232,291.421 108.714,292.010 109.246 L 293.081 110.214 292.113 109.143 C 291.211 108.145,290.939 107.921,290.939 108.176 M110.199 112.768 C 108.750 114.263,107.124 116.005,106.586 116.639 C 106.049 117.273,106.987 116.384,108.671 114.662 C 112.639 110.607,113.160 110.049,112.983 110.049 C 112.902 110.049,111.649 111.273,110.199 112.768 M153.615 118.470 C 152.650 119.146,152.613 120.593,153.561 120.593 C 153.937 120.593,154.148 120.444,154.033 120.258 C 153.919 120.074,153.688 120.009,153.519 120.113 C 153.351 120.217,153.215 120.108,153.218 119.871 C 153.224 119.329,153.860 118.311,153.866 118.832 C 153.872 119.268,155.512 118.644,155.516 118.204 C 155.521 117.776,154.378 117.936,153.615 118.470 M102.411 122.052 C 101.266 123.579,100.064 125.321,99.739 125.923 C 99.170 126.976,99.170 126.987,99.739 126.196 C 100.064 125.743,101.247 124.150,102.369 122.654 C 104.676 119.579,104.881 119.275,104.654 119.275 C 104.565 119.275,103.555 120.525,102.411 122.052 M148.551 120.677 C 148.717 120.843,149.204 120.923,149.633 120.856 C 150.292 120.752,150.246 120.706,149.331 120.554 C 148.676 120.445,148.369 120.494,148.551 120.677 M306.491 131.624 C 306.886 132.435,307.265 133.043,307.334 132.974 C 307.483 132.825,306.152 130.148,305.928 130.148 C 305.844 130.148,306.097 130.812,306.491 131.624 M242.988 136.434 C 241.906 137.536,240.502 138.726,239.868 139.080 C 238.642 139.764,234.656 142.482,234.309 142.872 C 233.652 143.610,240.280 139.232,242.256 137.623 C 243.579 136.545,245.443 134.432,245.070 134.432 C 245.006 134.432,244.070 135.333,242.988 136.434 M229.872 144.850 C 227.727 145.845,224.169 147.173,221.965 147.801 C 219.760 148.429,218.532 148.856,219.234 148.749 C 222.597 148.237,232.554 144.514,233.744 143.323 C 234.229 142.838,234.095 142.891,229.872 144.850 M214.250 149.486 C 214.568 149.569,215.086 149.569,215.404 149.486 C 215.721 149.403,215.461 149.335,214.827 149.335 C 214.193 149.335,213.933 149.403,214.250 149.486 M194.728 149.954 C 193.369 150.108,191.071 150.596,189.621 151.038 C 188.171 151.480,185.164 152.319,182.939 152.902 C 180.714 153.485,178.950 154.019,179.021 154.090 C 179.133 154.202,185.332 152.622,190.774 151.095 C 192.644 150.570,197.766 149.974,201.812 149.811 C 203.165 149.756,202.689 149.708,200.659 149.695 C 198.756 149.683,196.087 149.800,194.728 149.954 M210.626 149.824 C 211.124 149.900,211.940 149.900,212.438 149.824 C 212.937 149.749,212.529 149.687,211.532 149.687 C 210.535 149.687,210.128 149.749,210.626 149.824 M261.175 150.137 C 261.054 150.258,260.955 150.888,260.955 151.538 C 260.950 165.116,251.778 180.082,239.374 186.752 C 237.924 187.532,237.109 188.076,237.562 187.961 C 245.273 186.009,255.213 174.736,258.758 163.921 C 260.496 158.620,262.155 149.157,261.175 150.137 M173.402 155.941 C 171.368 156.685,169.768 157.358,169.846 157.436 C 170.001 157.591,177.595 154.870,177.595 154.659 C 177.595 154.434,177.177 154.561,173.402 155.941 M165.843 158.616 C 152.874 163.959,142.534 179.252,141.537 194.563 L 141.366 197.199 141.822 194.069 C 144.358 176.676,153.224 164.118,166.880 158.579 C 168.333 157.989,169.300 157.507,169.028 157.507 C 168.756 157.508,167.323 158.007,165.843 158.616 M87.391 164.086 C 87.391 164.720,87.459 164.979,87.542 164.662 C 87.625 164.345,87.625 163.826,87.542 163.509 C 87.459 163.192,87.391 163.451,87.391 164.086 M316.716 165.074 C 316.716 165.708,316.783 165.968,316.866 165.651 C 316.949 165.334,316.949 164.815,316.866 164.498 C 316.783 164.180,316.716 164.440,316.716 165.074 M317.058 169.028 C 317.058 169.843,317.123 170.177,317.201 169.769 C 317.280 169.362,317.280 168.694,317.201 168.287 C 317.123 167.879,317.058 168.213,317.058 169.028 M87.068 170.840 C 87.072 171.565,87.139 171.823,87.218 171.413 C 87.297 171.003,87.294 170.410,87.212 170.095 C 87.129 169.780,87.065 170.115,87.068 170.840 M317.419 176.112 C 317.419 177.924,317.475 178.624,317.541 177.666 C 317.608 176.709,317.608 175.226,317.540 174.371 C 317.472 173.516,317.418 174.300,317.419 176.112 M87.391 177.265 C 87.391 177.900,87.459 178.159,87.542 177.842 C 87.625 177.525,87.625 177.006,87.542 176.689 C 87.459 176.371,87.391 176.631,87.391 177.265 M317.058 182.537 C 317.058 183.353,317.123 183.686,317.201 183.278 C 317.280 182.871,317.280 182.203,317.201 181.796 C 317.123 181.388,317.058 181.722,317.058 182.537 M316.716 185.502 C 316.716 186.137,316.783 186.396,316.866 186.079 C 316.949 185.762,316.949 185.243,316.866 184.926 C 316.783 184.609,316.716 184.868,316.716 185.502 M235.279 188.500 C 233.688 189.136,226.190 192.520,226.030 192.674 C 225.550 193.137,235.953 188.766,236.546 188.256 C 236.798 188.040,236.089 188.176,235.279 188.500 M220.923 194.280 C 213.953 196.671,212.816 197.008,210.049 197.498 C 208.592 197.755,207.894 197.977,208.488 197.993 C 209.864 198.031,215.276 196.831,216.438 196.230 C 216.927 195.977,219.211 195.157,221.514 194.408 C 223.816 193.659,225.700 192.980,225.700 192.899 C 225.700 192.657,225.393 192.746,220.923 194.280 M140.918 200.577 C 140.807 202.343,140.777 204.530,140.851 205.437 C 140.925 206.343,141.077 209.308,141.187 212.026 C 141.298 214.745,141.450 217.488,141.525 218.122 C 143.713 236.607,149.500 250.179,160.463 262.533 C 162.105 264.383,163.613 265.898,163.813 265.898 C 164.013 265.898,162.978 264.650,161.514 263.124 C 148.147 249.201,141.447 229.795,141.286 204.530 C 141.234 196.429,141.202 196.075,140.918 200.577 M203.551 198.265 C 204.326 198.334,205.512 198.333,206.187 198.263 C 206.861 198.192,206.227 198.135,204.778 198.136 C 203.328 198.137,202.776 198.195,203.551 198.265 M198.270 198.591 C 198.859 198.664,199.823 198.664,200.412 198.591 C 201.001 198.518,200.519 198.458,199.341 198.458 C 198.163 198.458,197.681 198.518,198.270 198.591 M193.410 199.012 C 191.763 199.358,193.453 199.373,195.387 199.028 C 196.725 198.790,196.757 198.765,195.717 198.767 C 195.082 198.768,194.044 198.878,193.410 199.012 M190.115 199.671 C 189.463 199.879,189.429 199.934,189.951 199.934 C 190.313 199.934,190.980 199.816,191.433 199.671 C 192.086 199.462,192.120 199.407,191.598 199.407 C 191.236 199.407,190.568 199.525,190.115 199.671 M185.997 200.724 C 182.994 201.765,178.240 203.710,178.084 203.962 C 177.984 204.123,178.983 203.801,180.302 203.247 C 181.622 202.693,183.888 201.821,185.338 201.310 C 186.787 200.798,187.751 200.380,187.479 200.380 C 187.208 200.381,186.540 200.536,185.997 200.724 M312.722 203.002 C 312.519 203.584,312.411 204.118,312.481 204.189 C 312.551 204.259,312.775 203.841,312.978 203.258 C 313.181 202.676,313.290 202.142,313.219 202.071 C 313.149 202.001,312.925 202.420,312.722 203.002 M174.700 205.850 C 165.644 211.035,159.438 218.046,162.264 219.897 C 162.957 220.351,163.049 220.357,162.887 219.935 C 162.783 219.663,162.491 219.440,162.238 219.440 C 161.431 219.440,161.715 217.510,162.738 216.040 C 164.738 213.168,170.540 208.458,175.371 205.786 C 177.249 204.747,177.920 204.277,177.512 204.285 C 177.467 204.286,176.201 204.990,174.700 205.850 M310.762 208.416 C 310.210 209.628,310.315 209.886,310.912 208.785 C 311.191 208.270,311.357 207.788,311.282 207.712 C 311.207 207.637,310.973 207.954,310.762 208.416 M97.858 215.609 C 97.858 215.965,99.167 218.451,99.354 218.451 C 99.445 218.451,99.201 217.821,98.813 217.051 C 98.049 215.536,97.858 215.248,97.858 215.609 M306.551 216.886 C 305.417 218.811,305.343 218.975,305.920 218.287 C 306.589 217.489,307.166 216.474,306.950 216.474 C 306.864 216.474,306.684 216.660,306.551 216.886 M304.191 220.511 C 302.988 222.287,302.728 222.735,302.899 222.735 C 302.975 222.735,303.578 221.919,304.240 220.923 C 304.902 219.926,305.375 219.110,305.291 219.110 C 305.207 219.110,304.712 219.741,304.191 220.511 M163.097 221.047 C 163.097 221.450,164.063 223.723,164.235 223.723 C 164.312 223.723,164.148 223.056,163.870 222.241 C 163.395 220.847,163.097 220.387,163.097 221.047 M164.620 224.712 C 166.682 232.759,176.566 246.835,183.690 251.869 C 185.246 252.968,184.413 252.177,181.458 249.748 C 180.592 249.037,179.888 248.376,179.893 248.280 C 179.897 248.184,179.790 248.068,179.654 248.023 C 179.518 247.978,178.962 247.425,178.418 246.795 C 177.875 246.164,177.105 245.274,176.707 244.817 C 173.315 240.916,169.638 235.076,167.050 229.480 C 164.587 224.155,164.365 223.720,164.620 224.712 M254.036 224.936 C 254.036 225.405,253.715 225.848,253.165 226.135 C 252.106 226.690,252.642 227.156,253.824 226.707 C 255.243 226.167,255.964 224.048,254.695 224.143 C 254.246 224.177,254.036 224.429,254.036 224.936 M300.968 225.262 C 300.460 225.928,300.213 226.368,300.419 226.241 C 300.841 225.980,302.267 224.053,302.038 224.053 C 301.957 224.053,301.475 224.597,300.968 225.262 M298.828 227.924 C 296.528 230.416,295.407 231.765,296.165 231.130 C 297.003 230.428,300.315 226.689,300.099 226.689 C 300.028 226.689,299.456 227.245,298.828 227.924 M291.096 236.326 L 288.468 239.044 291.186 236.416 C 293.711 233.975,294.055 233.608,293.814 233.608 C 293.765 233.608,292.542 234.831,291.096 236.326 M111.367 237.006 C 111.367 237.063,111.849 237.544,112.438 238.077 L 113.509 239.044 112.541 237.974 C 111.639 236.975,111.367 236.751,111.367 237.006 M286.326 240.574 L 284.514 242.248 286.243 240.863 C 287.759 239.649,288.561 238.857,288.240 238.890 C 288.184 238.896,287.323 239.654,286.326 240.574 M115.585 241.763 C 116.855 243.167,118.382 244.761,118.978 245.305 C 119.574 245.848,118.596 244.699,116.804 242.751 C 115.013 240.803,113.486 239.209,113.411 239.209 C 113.336 239.209,114.314 240.358,115.585 241.763 M290.947 241.712 C 290.226 242.364,289.302 243.439,288.895 244.101 C 288.488 244.763,287.076 246.633,285.758 248.256 C 283.305 251.275,282.834 252.389,284.011 252.389 C 284.397 252.389,284.865 252.781,285.160 253.352 C 285.434 253.882,286.691 255.240,287.952 256.370 C 289.466 257.725,290.280 258.710,290.346 259.265 C 290.434 260.010,290.679 259.791,292.504 257.340 C 294.600 254.526,295.126 253.350,293.966 254.074 C 293.505 254.362,293.139 254.327,292.351 253.920 L 291.332 253.393 293.766 249.349 C 296.826 244.263,296.853 242.546,293.895 241.016 C 292.582 240.337,292.429 240.373,290.947 241.712 M281.549 244.178 C 279.594 245.656,279.331 246.073,281.164 244.788 C 282.548 243.817,283.302 243.142,282.968 243.172 C 282.912 243.177,282.273 243.630,281.549 244.178 M293.245 246.376 C 293.245 246.921,291.303 250.332,290.315 251.523 C 289.177 252.894,288.251 250.819,289.374 249.416 C 289.782 248.906,290.533 247.884,291.043 247.144 C 292.009 245.743,293.246 245.312,293.245 246.376 M123.545 249.506 C 124.910 250.961,125.206 251.222,125.206 250.975 C 125.206 250.922,124.502 250.218,123.641 249.410 L 122.076 247.941 123.545 249.506 M272.817 249.753 C 272.183 250.100,271.782 250.390,271.927 250.398 C 272.277 250.416,274.135 249.450,274.135 249.250 C 274.135 249.035,274.116 249.042,272.817 249.753 M125.865 251.503 C 125.865 251.560,126.347 252.042,126.936 252.574 L 128.007 253.542 127.039 252.471 C 126.137 251.473,125.865 251.249,125.865 251.503 M186.790 253.969 C 187.650 254.577,192.252 257.069,193.153 257.415 C 193.555 257.569,193.654 257.491,193.516 257.131 C 193.411 256.858,193.131 256.709,192.895 256.799 C 192.658 256.890,192.418 256.842,192.361 256.691 C 192.304 256.541,190.848 255.741,189.127 254.913 C 187.405 254.086,186.354 253.661,186.790 253.969 M278.830 255.562 C 276.313 257.842,276.028 258.405,277.100 258.979 C 278.017 259.469,278.128 266.886,277.219 266.886 C 275.760 266.886,271.170 264.287,271.170 263.461 C 271.170 262.062,270.587 262.163,267.705 264.061 C 266.171 265.071,264.766 265.898,264.583 265.898 C 263.887 265.898,264.264 267.148,265.017 267.337 C 266.444 267.695,270.667 277.524,270.071 279.101 C 269.475 280.682,270.067 280.574,272.584 278.647 C 276.135 275.926,276.822 274.977,275.246 274.963 C 274.957 274.961,274.232 273.846,273.479 272.245 L 272.203 269.532 273.416 270.050 C 280.638 273.135,280.335 273.259,280.847 267.000 L 281.221 262.438 282.636 264.217 C 283.803 265.684,284.014 266.161,283.844 266.935 C 283.560 268.230,283.986 268.114,285.537 266.474 C 287.937 263.937,289.979 260.417,288.188 261.903 C 287.839 262.192,287.310 261.828,285.736 260.213 C 282.862 257.266,282.260 256.399,282.058 254.914 C 281.806 253.064,281.526 253.120,278.830 255.562 M194.069 257.625 C 194.069 258.087,201.951 260.989,203.067 260.937 C 203.579 260.914,198.132 258.957,196.952 258.740 C 196.454 258.649,196.046 258.457,196.046 258.314 C 196.046 258.172,195.601 257.900,195.058 257.710 C 194.514 257.520,194.069 257.482,194.069 257.625 M204.970 261.406 C 205.045 261.473,205.700 261.617,206.425 261.728 C 207.344 261.868,207.543 261.838,207.084 261.630 C 206.451 261.343,204.687 261.156,204.970 261.406 M235.008 261.842 C 235.325 261.924,235.844 261.924,236.161 261.842 C 236.479 261.759,236.219 261.691,235.585 261.691 C 234.951 261.691,234.691 261.759,235.008 261.842 M232.043 262.171 C 232.360 262.254,232.879 262.254,233.196 262.171 C 233.513 262.088,233.254 262.020,232.619 262.020 C 231.985 262.020,231.726 262.088,232.043 262.171 M228.583 262.506 C 228.991 262.585,229.658 262.585,230.066 262.506 C 230.474 262.427,230.140 262.363,229.325 262.363 C 228.509 262.363,228.175 262.427,228.583 262.506 M216.737 262.848 C 218.241 262.910,220.613 262.909,222.009 262.848 C 223.405 262.786,222.175 262.736,219.275 262.736 C 216.376 262.737,215.234 262.787,216.737 262.848 M165.898 268.012 C 166.804 268.855,167.842 269.705,168.204 269.903 C 169.044 270.360,168.675 270.017,166.227 268.060 L 164.250 266.480 165.898 268.012 M258.237 269.088 C 255.709 270.262,254.718 271.499,256.306 271.499 C 256.853 271.499,258.314 273.827,258.322 274.708 C 258.323 274.846,258.515 275.329,258.749 275.783 C 259.542 277.318,260.364 280.410,260.178 281.153 C 259.468 283.982,253.766 286.537,252.037 284.800 C 250.982 283.741,248.161 274.955,248.658 274.276 C 249.644 272.928,248.238 272.824,244.002 273.932 C 240.851 274.756,240.292 275.210,241.662 275.834 C 242.402 276.171,242.724 276.881,244.021 281.028 C 246.615 289.326,246.963 289.947,249.386 290.599 C 253.463 291.697,261.714 287.634,264.262 283.274 C 265.780 280.675,265.573 278.476,263.328 273.371 C 262.029 270.415,261.693 269.333,261.933 268.883 C 262.670 267.506,261.505 267.571,258.237 269.088 M190.228 270.684 C 192.050 271.783,194.233 272.825,194.686 272.811 C 194.948 272.803,188.781 269.522,188.506 269.523 C 188.395 269.524,189.169 270.046,190.228 270.684 M152.554 270.015 C 152.554 270.236,156.548 272.228,156.695 272.080 C 156.761 272.014,155.857 271.487,154.685 270.909 C 153.513 270.331,152.554 269.928,152.554 270.015 M199.835 275.999 C 200.634 276.626,204.603 278.545,204.750 278.375 C 204.807 278.308,203.577 277.630,202.015 276.868 C 200.454 276.106,199.473 275.715,199.835 275.999 M226.030 276.762 C 224.671 276.901,221.223 277.034,218.369 277.057 C 212.613 277.105,212.224 277.282,214.333 278.890 C 214.967 279.374,215.486 279.945,215.486 280.158 C 215.486 280.372,215.844 281.513,216.282 282.695 C 217.359 285.602,221.315 296.583,221.507 297.199 C 221.591 297.471,221.445 297.941,221.183 298.243 C 219.545 300.126,222.009 300.543,227.158 299.253 C 229.811 298.589,230.071 298.204,228.714 296.957 C 227.626 295.957,225.381 290.112,225.906 289.644 C 226.065 289.503,227.730 289.140,229.606 288.837 C 237.038 287.638,239.751 286.119,240.107 282.954 C 240.708 277.611,236.380 275.707,226.030 276.762 M211.203 277.478 C 210.750 277.855,210.373 278.258,210.365 278.373 C 210.358 278.489,210.094 279.065,209.780 279.654 C 208.998 281.119,209.328 281.007,210.263 279.489 C 210.682 278.810,211.382 277.920,211.820 277.512 C 212.820 276.582,212.314 276.554,211.203 277.478 M171.993 278.403 C 172.265 278.587,172.772 278.740,173.119 278.743 C 173.962 278.750,173.699 278.561,172.488 278.290 C 171.766 278.129,171.632 278.159,171.993 278.403 M205.766 278.751 C 206.398 279.019,209.152 279.204,208.869 278.959 C 208.793 278.894,207.916 278.757,206.919 278.656 C 205.792 278.541,205.356 278.577,205.766 278.751 M177.144 281.509 C 177.894 282.160,179.360 283.807,180.403 285.168 C 182.493 287.898,183.207 288.524,181.487 286.119 C 179.844 283.822,178.003 281.809,176.831 281.026 C 176.072 280.519,176.158 280.652,177.144 281.509 M232.876 280.908 C 235.023 282.412,233.336 283.727,228.501 284.316 C 223.782 284.890,223.928 284.926,223.327 283.046 L 222.805 281.414 224.170 281.246 C 224.921 281.154,226.573 280.945,227.842 280.782 C 231.340 280.332,232.079 280.350,232.876 280.908 M194.481 284.906 C 194.798 284.989,195.317 284.989,195.634 284.906 C 195.951 284.823,195.692 284.755,195.058 284.755 C 194.423 284.755,194.164 284.823,194.481 284.906 M197.941 285.247 C 198.530 285.320,199.493 285.320,200.082 285.247 C 200.671 285.173,200.189 285.114,199.012 285.114 C 197.834 285.114,197.352 285.173,197.941 285.247 M197.035 288.780 C 197.035 288.871,197.479 289.175,198.023 289.456 C 198.567 289.737,199.012 289.893,199.012 289.803 C 199.012 289.712,198.567 289.408,198.023 289.127 C 197.479 288.846,197.035 288.690,197.035 288.780 M185.502 291.433 C 186.487 292.430,187.366 293.245,187.457 293.245 C 187.548 293.245,186.816 292.430,185.832 291.433 C 184.848 290.437,183.968 289.621,183.878 289.621 C 183.787 289.621,184.518 290.437,185.502 291.433 M200.659 290.905 C 201.112 291.280,201.742 291.674,202.059 291.780 C 202.376 291.885,202.636 292.108,202.636 292.275 C 202.636 292.441,203.118 292.796,203.707 293.064 C 204.746 293.536,206.027 294.239,209.967 296.503 C 211.009 297.102,211.862 297.800,211.862 298.055 C 211.862 298.309,212.035 298.517,212.246 298.517 C 212.457 298.517,212.520 298.629,212.385 298.764 C 212.250 298.900,210.557 299.102,208.623 299.213 L 205.107 299.415 208.952 299.378 C 214.808 299.322,214.556 298.831,206.096 293.831 C 199.790 290.104,199.509 289.953,200.659 290.905 M189.786 294.726 C 189.786 294.949,192.462 296.280,192.611 296.131 C 192.680 296.062,192.073 295.683,191.261 295.289 C 190.450 294.895,189.786 294.641,189.786 294.726 " stroke="none" fill="#7c7981" fill-rule="evenodd"></path></g></svg>